<?xml version="1.0" encoding="UTF-8"?>
<svg id="Layer_1" data-name="Layer 1" xmlns="http://www.w3.org/2000/svg" xmlns:xlink="http://www.w3.org/1999/xlink" viewBox="0 0 450 450">
  <defs>
    <style>
      .cls-1 {
        fill: rgba(196, 255, 176, .31);
      }

      .cls-2 {
        stroke: #263238;
        stroke-miterlimit: 10;
      }

      .cls-2, .cls-3 {
        fill: #fff;
      }

      .cls-4 {
        fill: #fafafa;
      }

      .cls-5 {
        fill: #37474f;
      }

      .cls-6 {
        fill: #f5f5f5;
      }

      .cls-7 {
        fill: #455a64;
      }

      .cls-8 {
        fill: #f28f8f;
      }

      .cls-9, .cls-10 {
        opacity: .15;
      }

      .cls-9, .cls-11, .cls-12 {
        fill: none;
      }

      .cls-13 {
        opacity: .35;
      }

      .cls-13, .cls-14, .cls-15, .cls-10, .cls-16 {
        isolation: isolate;
      }

      .cls-14 {
        opacity: .3;
      }

      .cls-17 {
        fill: #84cd98;
      }

      .cls-18 {
        fill: #0f0d13;
      }

      .cls-15 {
        opacity: .2;
      }

      .cls-19 {
        fill: #92e3a9;
      }

      .cls-12 {
        clip-path: url(#clippath);
      }

      .cls-16 {
        opacity: .4;
      }

      .cls-20 {
        fill: #263238;
      }

      .cls-21 {
        fill: #ffa8a7;
      }
    </style>
    <clipPath id="clippath">
      <rect class="cls-11" x="323.24" y="84.87" width="51.87" height="54.88"/>
    </clipPath>
  </defs>
  <rect class="cls-1" width="450" height="450" rx="25" ry="25" shape-rendering="crispEdges"/>
  <path class="cls-20" d="m410,36.69v195.15c0,3.89-1.51,7.62-4.18,10.37-2.67,2.75-6.3,4.3-10.09,4.32h-87.42c-3.79,0-7.43-1.55-10.11-4.31-2.68-2.75-4.19-6.49-4.19-10.38V36.69c0-3.89,1.51-7.63,4.19-10.38,2.68-2.75,6.32-4.3,10.12-4.3h87.42c1.04,0,2.08.12,3.09.35,3.17.73,6.01,2.55,8.04,5.15,2.03,2.61,3.14,5.85,3.14,9.18Z"/>
  <path class="cls-19" d="m387.03,27.99h-73.38c-7.67,0-13.89,6.58-13.89,14.7v183.38c0,8.12,6.22,14.7,13.89,14.7h73.38c7.67,0,13.89-6.58,13.89-14.7V42.69c0-8.12-6.22-14.7-13.89-14.7Z"/>
  <path class="cls-20" d="m324.54,27.9h53.92v1.67c0,2.85-1.07,5.57-2.97,7.59-1.9,2.01-4.48,3.14-7.17,3.14h-33.64c-2.69,0-5.27-1.13-7.17-3.14-1.9-2.01-2.97-4.74-2.97-7.59v-1.67Z"/>
  <path class="cls-2" d="m333.82,36.39c1.44,0,2.61-1.24,2.61-2.76s-1.17-2.76-2.61-2.76-2.61,1.24-2.61,2.76,1.17,2.76,2.61,2.76Z"/>
  <path class="cls-2" d="m358.81,31.41h-14.63c-1.24,0-2.25,1.07-2.25,2.38v.75c0,1.32,1.01,2.38,2.25,2.38h14.63c1.24,0,2.25-1.07,2.25-2.38v-.75c0-1.32-1.01-2.38-2.25-2.38Z"/>
  <path class="cls-20" d="m335.31,60.04c1.24,0,1.77.78,1.77,2v1c0,1.33-.58,2-1.89,2h-.78v3.3h-.8v-8.38l1.7.09Zm-.07,4.24c.65,0,.94-.32.94-1.13v-1.11c0-.77-.26-1.15-.94-1.15h-.85v3.38h.85Z"/>
  <path class="cls-20" d="m339.57,60.04c1.24,0,1.77.68,1.77,1.92v.69c0,.92-.31,1.5-.94,1.72.73.23,1,.86,1,1.75v1.31c-.03.34.03.68.16,1h-.9c-.12-.32-.18-.66-.15-1v-1.32c0-1-.42-1.25-1.15-1.25h-.62v3.58h-.89v-8.38h1.72Zm-.23,3.99c.71,0,1.12-.24,1.12-1.15v-.8c0-.76-.26-1.15-.94-1.15h-.86v3.09h.68Z"/>
  <path class="cls-20" d="m342.2,62.07c0-1.28.6-2.11,1.81-2.11s1.82.83,1.82,2.11v4.33c.04.27.02.55-.06.81-.08.26-.21.5-.38.7-.17.2-.39.36-.63.46-.24.1-.5.15-.75.13-1.21,0-1.81-.84-1.81-2.11v-4.33Zm.87,4.38c0,.77.31,1.21.94,1.21s.94-.44.94-1.21v-4.43c0-.75-.29-1.21-.94-1.21s-.94.46-.94,1.21v4.43Z"/>
  <path class="cls-20" d="m350.16,62.07v.76h-.83v-.81c0-.75-.28-1.21-.94-1.21s-.94.46-.94,1.21v4.43c0,.76.29,1.21.94,1.21s.94-.45.94-1.21v-1.09h.83v1c0,1.27-.56,2.11-1.78,2.11s-1.77-.84-1.77-2.11v-4.33c0-1.27.57-2.11,1.77-2.11s1.78.88,1.78,2.15Z"/>
  <path class="cls-20" d="m353.79,63.75v.84h-1.94v2.99h2.38v.85h-3.25v-8.38h3.25v.86h-2.38v2.85h1.94Z"/>
  <path class="cls-20" d="m357.86,63.75v.84h-1.89v2.99h2.38v.85h-3.25v-8.38h3.25v.86h-2.38v2.85h1.89Z"/>
  <path class="cls-20" d="m360.96,60.04c1.24,0,1.8.8,1.8,2.09v4.22c0,1.29-.57,2.08-1.8,2.08h-1.89v-8.38h1.89Zm0,7.53c.63,0,.94-.42.94-1.19v-4.31c0-.76-.31-1.18-.94-1.18h-.94v6.68h.94Z"/>
  <g class="cls-12">
    <g>
      <path class="cls-18" d="m323.24,86.58c0-.45.17-.89.48-1.21.3-.32.72-.5,1.15-.5h9.73c.43,0,.84.18,1.15.5.3.32.47.76.47,1.21s-.17.89-.47,1.21c-.3.32-.72.5-1.15.5h-8.1v8.58c0,.45-.17.89-.48,1.21-.3.32-.72.5-1.15.5s-.84-.18-1.15-.5c-.3-.32-.48-.76-.48-1.21v-10.29Zm38.9,0c0-.45.17-.89.48-1.21.3-.32.72-.5,1.15-.5h9.73c.43,0,.84.18,1.15.5.3.32.47.76.47,1.21v10.29c0,.45-.17.89-.47,1.21-.3.32-.72.5-1.15.5s-.84-.18-1.15-.5c-.3-.32-.47-.76-.47-1.21v-8.58h-8.11c-.43,0-.84-.18-1.15-.5-.3-.32-.48-.76-.48-1.21Zm-37.28,39.45c.43,0,.84.18,1.15.5.3.32.48.76.48,1.21v8.58h8.1c.43,0,.84.18,1.15.5.3.32.47.76.47,1.21s-.17.89-.47,1.21c-.3.32-.72.5-1.15.5h-9.73c-.43,0-.84-.18-1.15-.5-.3-.32-.48-.76-.48-1.21v-10.29c0-.46.17-.89.48-1.21.3-.32.72-.5,1.15-.5Zm48.63,0c.43,0,.84.18,1.15.5.3.32.47.76.47,1.21v10.29c0,.45-.17.89-.47,1.21-.3.32-.72.5-1.15.5h-9.73c-.43,0-.84-.18-1.15-.5-.3-.32-.48-.76-.48-1.21s.17-.89.48-1.21c.3-.32.72-.5,1.15-.5h8.11v-8.58c0-.46.17-.89.47-1.21.3-.32.72-.5,1.15-.5Zm-37.28-27.44h3.24v3.43h-3.24v-3.43Z"/>
      <path class="cls-18" d="m345.93,91.73h-16.21v17.15h16.21v-17.15Zm-12.97,3.43h9.73v10.29h-9.73v-10.29Zm6.48,27.44h-3.24v3.43h3.24v-3.43Z"/>
      <path class="cls-18" d="m345.93,115.74h-16.21v17.15h16.21v-17.15Zm-12.97,3.43h9.73v10.29h-9.73v-10.29Zm25.93-20.58h3.24v3.43h-3.24v-3.43Z"/>
      <path class="cls-18" d="m352.41,91.73h16.21v17.15h-16.21v-17.15Zm3.24,3.43v10.29h9.73v-10.29h-9.73Zm-6.48,17.15v6.86h3.24v3.43h-3.24v3.43h6.48v-6.86h3.24v6.86h3.24v-3.43h6.48v-3.43h-9.73v-6.86h-9.73Zm6.48,6.86h-3.24v-3.43h3.24v3.43Zm12.97,6.86h-3.24v3.43h-6.48v3.43h9.73v-6.86Zm-12.97,6.86v-3.43h-6.48v3.43h6.48Z"/>
      <path class="cls-18" d="m362.14,115.74h6.48v-3.43h-6.48v3.43Z"/>
    </g>
  </g>
  <path d="m329.9,182.27c-.05-.4-.23-.72-.56-.94-.33-.22-.74-.34-1.24-.34-.36,0-.67.06-.93.17-.26.11-.46.26-.61.46-.14.19-.21.41-.21.66,0,.21.05.39.15.54.1.15.23.28.39.38.16.1.33.18.52.25.18.07.36.12.53.16l.85.22c.28.07.56.16.86.28.29.12.56.27.81.46s.45.43.61.71c.16.28.23.62.23,1.01,0,.49-.13.93-.38,1.32-.25.38-.62.69-1.1.91-.48.22-1.06.33-1.74.33s-1.22-.1-1.7-.31c-.48-.21-.85-.5-1.12-.88-.27-.38-.42-.84-.45-1.36h1.32c.03.32.13.58.31.79.18.21.41.36.69.46.28.1.6.15.93.15.37,0,.7-.06.99-.17.29-.12.52-.28.69-.49.17-.21.25-.46.25-.75,0-.26-.07-.47-.22-.63-.14-.16-.34-.3-.59-.41-.25-.11-.53-.2-.84-.28l-1.03-.28c-.7-.19-1.25-.47-1.66-.84-.41-.37-.61-.86-.61-1.47,0-.5.14-.94.41-1.32s.64-.67,1.11-.87c.47-.21.99-.32,1.58-.32s1.11.1,1.56.31c.46.21.81.49,1.07.86.26.36.4.78.41,1.24h-1.27Zm7.01,3.72v-3.83h1.28v6.54h-1.25v-1.13h-.07c-.15.35-.39.64-.73.87-.33.23-.74.35-1.23.35-.42,0-.79-.09-1.12-.28-.32-.19-.57-.46-.76-.83-.18-.37-.27-.82-.27-1.36v-4.16h1.27v4.01c0,.45.12.8.37,1.07.25.26.57.4.96.4.24,0,.48-.06.71-.18.24-.12.44-.3.59-.54.16-.24.24-.55.23-.92Zm5.75,2.85c-.63,0-1.18-.14-1.64-.43-.45-.29-.8-.69-1.05-1.2-.24-.51-.37-1.09-.37-1.75s.12-1.25.38-1.76c.25-.51.6-.91,1.06-1.2.45-.29.99-.43,1.61-.43.5,0,.94.09,1.33.28.39.18.7.44.94.77.24.33.39.71.43,1.15h-1.24c-.07-.31-.23-.57-.47-.79-.24-.22-.57-.33-.97-.33-.36,0-.67.09-.93.28-.26.18-.47.45-.62.79-.15.34-.22.74-.22,1.21s.07.89.22,1.24c.14.35.35.62.61.81.27.19.58.29.94.29.24,0,.46-.04.66-.13.2-.09.37-.22.5-.39.14-.17.23-.37.29-.6h1.24c-.05.42-.18.8-.41,1.13-.23.33-.54.59-.92.78-.38.19-.83.29-1.35.29Zm6.81,0c-.63,0-1.18-.14-1.64-.43-.46-.29-.8-.69-1.05-1.2-.24-.51-.37-1.09-.37-1.75s.12-1.25.38-1.76c.25-.51.6-.91,1.06-1.2.45-.29.99-.43,1.61-.43.5,0,.94.09,1.33.28.39.18.7.44.94.77.24.33.39.71.43,1.15h-1.24c-.07-.31-.22-.57-.47-.79-.24-.22-.57-.33-.97-.33-.35,0-.67.09-.93.28-.27.18-.47.45-.62.79-.15.34-.22.74-.22,1.21s.07.89.22,1.24c.15.35.35.62.61.81.27.19.58.29.94.29.24,0,.46-.04.66-.13.2-.09.36-.22.5-.39.14-.17.23-.37.29-.6h1.24c-.04.42-.18.8-.41,1.13-.23.33-.54.59-.92.78-.38.19-.83.29-1.35.29Zm6.87,0c-.65,0-1.2-.14-1.67-.41-.46-.28-.82-.67-1.07-1.17-.25-.51-.38-1.1-.38-1.78s.12-1.26.38-1.77c.25-.51.61-.91,1.06-1.2.45-.29.99-.43,1.59-.43.37,0,.73.06,1.07.18.35.12.66.31.93.57.28.26.49.6.65,1.02.16.42.24.92.24,1.51v.45h-5.2v-.96h3.95c0-.33-.07-.63-.2-.89-.14-.26-.33-.47-.57-.62-.24-.15-.53-.23-.86-.23-.36,0-.67.09-.94.26-.26.17-.47.4-.61.68-.14.28-.21.58-.21.91v.74c0,.44.08.81.23,1.12.16.31.37.54.65.7.28.16.6.24.98.24.24,0,.46-.03.66-.1.2-.07.37-.18.52-.31.14-.14.26-.31.33-.52l1.21.22c-.1.35-.27.67-.52.93-.25.26-.56.47-.93.62-.37.15-.8.22-1.27.22Zm9.13-5.08l-1.15.2c-.05-.15-.12-.29-.23-.42-.1-.13-.24-.24-.42-.33-.18-.09-.4-.13-.66-.13-.36,0-.66.08-.9.24-.24.16-.36.37-.36.62,0,.22.08.4.24.53.16.13.42.24.78.33l1.04.24c.6.14,1.05.35,1.35.64.3.29.44.67.44,1.13,0,.39-.11.74-.34,1.05-.23.3-.54.54-.94.72-.4.17-.86.26-1.39.26-.73,0-1.33-.16-1.79-.47-.46-.32-.75-.76-.85-1.34l1.23-.19c.08.32.23.56.47.73.24.16.55.24.93.24.42,0,.75-.09,1-.26.25-.18.38-.39.38-.64,0-.21-.08-.38-.23-.52-.15-.14-.38-.24-.7-.32l-1.11-.24c-.61-.14-1.06-.36-1.36-.66-.29-.3-.43-.69-.43-1.15,0-.39.11-.72.32-1.01.22-.29.51-.51.89-.68.38-.17.82-.25,1.31-.25.71,0,1.26.15,1.67.46.41.3.68.71.81,1.22Zm6.43,0l-1.15.2c-.05-.15-.12-.29-.23-.42-.1-.13-.24-.24-.42-.33-.18-.09-.4-.13-.66-.13-.36,0-.66.08-.9.24-.24.16-.36.37-.36.62,0,.22.08.4.24.53.16.13.42.24.78.33l1.04.24c.6.14,1.05.35,1.35.64.29.29.44.67.44,1.13,0,.39-.11.74-.34,1.05-.22.3-.54.54-.94.72-.4.17-.87.26-1.39.26-.73,0-1.33-.16-1.79-.47-.46-.32-.75-.76-.85-1.34l1.23-.19c.08.32.24.56.47.73.24.16.55.24.93.24.42,0,.75-.09,1-.26.25-.18.38-.39.38-.64,0-.21-.08-.38-.23-.52-.15-.14-.38-.24-.7-.32l-1.11-.24c-.61-.14-1.06-.36-1.35-.66-.29-.3-.43-.69-.43-1.15,0-.39.11-.72.32-1.01.22-.29.51-.51.9-.68.38-.17.82-.25,1.31-.25.71,0,1.27.15,1.67.46.41.3.67.71.8,1.22Z"/>
  <path class="cls-6" d="m205.39,399c90.79,0,164.39-40.67,164.39-90.83s-73.6-90.83-164.39-90.83-164.39,40.66-164.39,90.83,73.6,90.83,164.39,90.83Z"/>
  <path class="cls-17" d="m97.26,297.89c-24.54,14.14-24.54,37.06,0,51.2,24.54,14.14,64.33,14.14,88.86,0,24.54-14.14,24.54-37.06,0-51.2-24.54-14.14-64.32-14.14-88.86,0Z"/>
  <path class="cls-17" d="m335.74,281.43l-6.76-3.9s-4.02-16.68-2.42-31.69c2.25-21.1,16.17-29.04,21.47-27.22,5.29,1.82,6.83,7.96-1.93,20.53-5.17,7.42-11.51,22.86-10.36,42.28Z"/>
  <g class="cls-9">
    <path d="m335.74,281.43l-6.76-3.9s-4.02-16.68-2.42-31.69c2.25-21.1,16.17-29.04,21.47-27.22,5.29,1.82,6.83,7.96-1.93,20.53-5.17,7.42-11.51,22.86-10.36,42.28Z"/>
  </g>
  <path class="cls-3" d="m332.94,273.23s.04,0,.07,0c.25-.05.42-.29.37-.55-3.71-19.46,3.11-41.34,11.55-50.44.18-.19.16-.49-.03-.66-.19-.17-.49-.16-.66.03-8.59,9.27-15.54,31.5-11.78,51.24.04.23.25.39.48.38Z"/>
  <path class="cls-17" d="m353.45,291.63c1.07.54,3.91-1.88,4.7-2.47,1.36-1.01,2.42-2.4,3.1-3.94.79-1.79.92-3.68.54-5.6-.19-1-.52-1.96-.86-2.92-.32-.94-.65-1.89-.97-2.83-.32-.93-.64-1.89-.57-2.87.15-1.98,1.83-3.44,3.36-4.71,1.69-1.4,3.43-3.22,3.3-5.59-.1-1.82-1.13-3.47-2.34-4.84-1.2-1.37-2.61-2.57-3.71-4.03-.79-1.05-1.43-2.3-1.38-3.61.03-.82.33-1.6.69-2.33.76-1.58,1.79-3.05,2.28-4.73.49-1.68.31-3.74-1.05-4.85-1.11-.92-2.7-.97-4.13-.81-1.32.15-2.59.82-3.72,1.52-3.66,2.27-5.58,6.83-9.49,8.63-1.51.7-3.19.92-4.77,1.42-1.58.5-3.18,1.4-3.85,2.92-1.32,2.99,1.58,6.46.71,9.61-.77,2.79-3.39,3.97-4.77,6.52-.6,1.11-.69,2.37-.52,3.62.29,2.12.68,3.67,1.82,5.99.95,1.92,3.61,5.54,3.61,5.54,0,0,17.83,10.28,17.99,10.36Z"/>
  <path class="cls-3" d="m343.1,286.25s.01,0,.01,0c.27-.02.45-.25.43-.51-1.71-18.51,6.01-39.43,12.08-45.7.18-.19.17-.48-.01-.66-.19-.18-.48-.17-.66.01-6.19,6.4-14.08,27.67-12.34,46.44.02.25.24.44.49.42Z"/>
  <path class="cls-3" d="m344.95,263.42s.09,0,.14-.03c5.88-2.14,13.31-2.84,13.38-2.85.26-.02.45-.25.42-.51-.02-.26-.23-.45-.51-.42-.08,0-7.62.72-13.62,2.9-.24.09-.37.36-.28.6.07.2.26.32.46.31Z"/>
  <path class="cls-17" d="m75.79,281.43l6.76-3.9s4.02-16.68,2.42-31.69c-2.25-21.1-16.17-29.04-21.47-27.22-5.29,1.82-6.83,7.96,1.93,20.53,5.17,7.42,11.52,22.86,10.36,42.28Z"/>
  <g class="cls-9">
    <path d="m75.79,281.43l6.76-3.9s4.02-16.68,2.42-31.69c-2.25-21.1-16.17-29.04-21.47-27.22-5.29,1.82-6.83,7.96,1.93,20.53,5.17,7.42,11.52,22.86,10.36,42.28Z"/>
  </g>
  <path class="cls-3" d="m78.59,273.23s-.04,0-.06,0c-.25-.05-.42-.29-.37-.55,3.71-19.46-3.11-41.34-11.55-50.44-.18-.19-.16-.49.03-.66.19-.17.49-.16.66.03,8.59,9.27,15.54,31.5,11.78,51.24-.04.23-.25.39-.48.38Z"/>
  <path class="cls-17" d="m58.08,291.63c-1.07.54-3.91-1.88-4.7-2.47-1.36-1.01-2.42-2.4-3.1-3.94-.79-1.79-.92-3.68-.54-5.6.19-1,.52-1.96.85-2.92.32-.94.65-1.89.97-2.83.32-.93.64-1.89.57-2.87-.15-1.98-1.83-3.44-3.36-4.71-1.69-1.4-3.43-3.22-3.3-5.59.1-1.82,1.13-3.47,2.34-4.84,1.2-1.37,2.61-2.57,3.71-4.03.79-1.05,1.43-2.3,1.38-3.61-.03-.82-.33-1.6-.69-2.33-.76-1.58-1.79-3.05-2.28-4.73-.49-1.68-.31-3.74,1.05-4.85,1.11-.92,2.69-.97,4.13-.81,1.33.15,2.59.82,3.72,1.52,3.66,2.27,5.58,6.83,9.49,8.63,1.51.7,3.19.92,4.77,1.42,1.58.5,3.18,1.4,3.85,2.92,1.32,2.99-1.58,6.46-.71,9.61.77,2.79,3.39,3.97,4.77,6.52.6,1.11.69,2.37.52,3.62-.29,2.12-.68,3.67-1.82,5.99-.95,1.92-3.61,5.54-3.61,5.54,0,0-17.82,10.28-17.99,10.36Z"/>
  <path class="cls-3" d="m68.43,286.25s-.01,0-.01,0c-.27-.02-.45-.25-.43-.51,1.71-18.51-6.01-39.43-12.08-45.7-.18-.19-.17-.48.01-.66.19-.18.48-.17.66.01,6.19,6.4,14.08,27.67,12.34,46.44-.02.25-.24.44-.49.42Z"/>
  <path class="cls-3" d="m66.58,263.42s-.09,0-.14-.03c-5.88-2.14-13.31-2.84-13.38-2.85-.26-.02-.45-.25-.42-.51.02-.26.23-.45.51-.42.08,0,7.62.72,13.62,2.9.24.09.37.36.28.6-.07.2-.26.32-.46.31Z"/>
  <path class="cls-21" d="m155.78,109.57c8.54-.33,11.9.2,14.95,3.9,3.32,4.03,14.72,40.96,14.72,40.96l30.4,10.51-11.31,7.17s-18.6-3.82-24.09-4.88c-4.32-.83-5.74-.87-7.91-6.39-3.01-7.65-15.87-39.06-15.87-39.06l-.9-12.22Z"/>
  <path class="cls-7" d="m156.8,109.36c4.84-.42,8.58-.23,11.33,1.26,2.74,1.49,3.9,3.31,5.76,7.97,1.86,4.66,11.99,35.11,11.99,35.11l14.84,5.27-3.03,11.72s-16.14-2.8-19.47-3.56c-3.33-.76-4.24-1.47-6.13-5.79-1.89-4.32-12.92-31.8-12.92-31.8l-2.36-20.19Z"/>
  <path class="cls-20" d="m124.2,342.68c-.32,1.26-.99,4.84-7.66,4.84s-10.5-2.73-11.81-6.11c-1.31-3.38-.56-5.89-.44-8.84.12-2.95-2.07-4.83-2.56-6.42-.72-2.35,1.25-5.58,1.25-5.58l21.22,22.11Z"/>
  <path class="cls-20" d="m186.73,324.32c.25.18.39,2.25-.31,3.2-.48.65-4.96,3.89-10.48,3.22-5.52-.67-8.21-2.11-11.37-3.96-3.23-1.9-5.45-2.17-8.74-2.16-3.18,0-5.53-.61-5.8-1.43-.48-1.45-.51-2.37.19-2.35l36.5,3.48Z"/>
  <path class="cls-21" d="m105.21,315.73c0,6.07,11.64,7.17,11.35,2.29l4.06-14.18-13.16-1.39-2.25,13.28Z"/>
  <path class="cls-20" d="m124.14,339.65c-.43-1.15-1.91-2.93-2.52-4-3.19-5.59-4.82-11.8-4.42-18.26.02-.35.07-1.04-.25-1.3-.34-.27-.72-.01-1.12.1,0,0-.01-.01-.02-.02,0,0,0,.02,0,.03-.5.14-1.18.27-2.1.25-2.35-.06-4.84-.97-5.43-.97-.46,0-.79,1.37-.96,2.88-.75-.63-.88-1.7-1.54-2.41-.35-.38-.53-.41-.45-.95.05-.35.12-.66.17-1.01-.57-.26-1.38,1.95-2.11,3.62-.84,1.93-1.86,4.11-1.35,6.26.29,1.2.88,2.3,1.41,3.41.91,1.92,1.67,3.98,1.58,6.11-.04.93-.24,1.85-.23,2.78.02,3.24,1.86,6.04,4.8,7.42,3.82,1.79,9.84,2.42,13.74.12,1.37-.81,1.23-2.92.8-4.07Z"/>
  <path class="cls-21" d="m152.55,310.79c3.29,2.36,6.33,2.65,10.2.71l1.95-20.68h-14.24l2.09,19.97Z"/>
  <path class="cls-20" d="m121.38,178.19c-2.63,24.07-6.12,71.87-6.12,71.87,0,0-3.95,7.24-5.49,18.85-1.9,14.34-4.14,41.61-4.14,41.61,0,0,6.72,4.36,13.26,2.25,0,0,14.95-43.06,17.94-57.18,2.6-12.32,7.21-37.62,7.21-37.62l5.76,34.43s-2.26,7.15-1.86,16.78c.28,6.63,2.9,31.98,2.9,31.98,2.16,2.04,10.48,2.32,13.26.55,0,0,3.99-42.21,4.58-49.18.77-9.16,2.19-74.91,2.19-74.91l-49.48.54Z"/>
  <path d="m144.04,217.98l3.22-14.81s7.19-1.64,12.33-5.75c0,0-1.88,4.72-9.76,8.34l-3.29,13.87,2.83,30.43-5.33-32.08Z"/>
  <path class="cls-20" d="m183.9,320.18c-5.45-2.03-10.75-4.41-14.11-6.77-.94-.66-1.66-1.22-2.27-1.74-1.39-1.39-2.23-4.42-2.83-4.76-.19-.11-.47.02-.87.27-.23-.24-.43-.38-.64-.38l-.08.84c-.84.52-2.03,1.14-3.73,1.36-3.34.42-3.47-.24-3.58.84-.03.27-.02.7.02,1.21-1.78-.23-3.2-.74-3.3-1.41l-.29-2.13c-1.77-.09-1.77,3.06-2.22,6.62-.36,2.88-.97,4.98-.1,7.06,2.75,2.23,7.44,1.49,10.13,1.83,3.81.48,5.69,3.22,11.03,4.84,8.61,2.62,13.85-.97,15.38-2.5.98-1.92.42-4.06-2.55-5.17Z"/>
  <path class="cls-5" d="m141.87,110.08c-6.74,1.02-12.09,1.29-16.8,2.05-3.6.58-4.69,6.74-4.93,10.71-.77,12.94,2.2,37.75,2.2,37.75l-1.81,22.11c6.05,6.45,35.01,9.27,50.45-.18,0,0,.42-43.98,0-51.4-.73-13.05-8.29-21.39-13.11-21.76,0,0-4.42-1.04-16,.72Z"/>
  <path class="cls-20" d="m153.93,188.02c.68-.09,1.35-.19,2.02-.3.21-8.71.43-25.84.19-34.1-.4-14.05-2.22-28.98-4.33-33.58,1.03,5.04,2.8,16.78,2.66,32.36-.1,11.26-.4,27.49-.55,35.63Z"/>
  <path class="cls-21" d="m92.02,154.98c16.08-30.6,20.03-37.23,24.75-40.6,2.58-1.85,8.98-2.37,8.98-2.37,2.67,2.86,4.53,13.35-1.19,22.68,0,0-13.52,18.37-17.21,24.46,3.87,7.31,9.63,16.35,13.19,20.72.71.87,1.94,1.6,3.11,1.71,3.12.3,4.55,1.28,7.19,2.26,2.06.77,3.47.54,3.46,1.1-.02.72-.7,2.19-2.73,2.52-1.02.17-1.85.07-3.68-.13,0,0,2.09,2.08,5.88,3.87,5.14,2.43,6.71,5.99-.86,8.27-3.03.91-8.57.74-16.05-6.5-2.54-2.45-7.29-7.52-9.79-10.39-6.56-7.53-11.98-14.21-15.47-18.75-2.17-2.82-1.03-6.04.44-8.83Z"/>
  <path class="cls-5" d="m114.73,171.27l4.35,6.71s-7.19,1.76-9.6,7.29l-6.27-6.67s.39-2.68,4.45-5.38c4.05-2.69,7.07-1.95,7.07-1.95Z"/>
  <path class="cls-7" d="m128.07,111.72c-5.31-.05-9.32.11-12.46,2.47-3.14,2.36-7.63,10.16-11.24,16.69-3.61,6.53-12.68,22.61-13.99,26.33-1.31,3.72-.43,5.56,1.71,8.29,2.14,2.73,11.12,13.11,11.12,13.11,2.79-3.47,6.58-6.58,11.52-7.33l-6.64-12.18,15.56-21.04s4.33-5.38,5.27-14.34c.95-8.96-.85-11.99-.85-11.99Z"/>
  <path class="cls-20" d="m135.35,71.17s-3.69.51-5.05,3.29c-1.18,2.42-.75,8.25.82,14.61,1.57,6.36,3.05,10.19,3.97,11.95.92,1.76,2.82,2.25,2.82,2.25l-.18-7.54-.27-5.26s3.38-4.61,3.75-8.39c.48-4.86-.55-6.85-.55-6.85l-5.31-4.07Z"/>
  <path class="cls-20" d="m134.48,72.1l-5.21-2.38c.74-1.55,2.5-2.27,3.94-1.61,1.44.66,2,2.44,1.26,3.99Z"/>
  <path class="cls-20" d="m141.31,78.47c.02,7.78,6.37,14.07,14.16,14.04,7.8-.03,14.1-6.35,14.07-14.13-.03-7.78-6.37-14.07-14.16-14.04-7.8.03-14.1,6.35-14.07,14.13Z"/>
  <path class="cls-21" d="m137.65,89.64c-1.27,1.1-2.3-1.75-3.37-2.86-1.07-1.11-4.55-2.62-6.28,1.04-1.76,3.72,1.59,8.78,4.2,9.99,3.82,1.77,5.52-2.07,5.52-2.07l.41,15.87c3.67,5.55,12.25,3.43,13.51,6.73.75-2.93,4.62-2.94,1.85-6.11l-.03-5.17s4.28.63,6.36.31c3.47-.55,5.28-3.16,6.32-6.91,1.67-6.03,2.34-16.16.02-27.86-3.89-3-17.36-2.5-25.52,2.66.6,10.38-1.74,13.3-3.01,14.4Z"/>
  <path class="cls-20" d="m168.12,64.3c-.11-.2-.28-.38-.51-.39-.17,0-.33.1-.47.21-.51.37-1.65,1.32-3.09,2.08.29-1.38.3-2.82.05-4.21-.15-.85-.4-2.83-1.46-3.04-.63-.13-1.18.4-1.65.84-4.24,3.96-9.78,2.13-14.89,2.29-4.28.14-9.43,1.87-11.36,6.02-.88,1.9-1.04,3.9.71,5.21,1.49,1.12,3.4,1.63,5.21,1.94,8.51,1.48,20.72,4.97,27.02-2.95.93-1.17,1.33-2.49,1.32-4.16-.01-1.54-.33-2.67-.85-3.79,0-.02-.02-.03-.02-.05Z"/>
  <path class="cls-8" d="m153.47,107.05s-7.75-1.53-10.47-2.96c-1.82-.96-3.32-2.62-3.76-3.69,0,0,.52,2.29,2.14,4.35,1.99,2.52,12.09,4.35,12.09,4.35v-2.06Z"/>
  <path class="cls-20" d="m151.46,87.77c0,.89-.69,1.61-1.55,1.61-.86,0-1.56-.72-1.56-1.61,0-.89.69-1.61,1.55-1.61.86,0,1.56.72,1.56,1.61Z"/>
  <path class="cls-20" d="m149.79,81.93l-3.32,1.84c-.49-.95-.15-2.13.76-2.64.92-.51,2.06-.15,2.55.8Z"/>
  <path class="cls-8" d="m152.22,97.63l4.96,1.84c-.49,1.42-1.99,2.16-3.36,1.65-1.37-.51-2.08-2.07-1.6-3.49Z"/>
  <path class="cls-20" d="m165.14,83.56l-3.04-2.32c.62-.87,1.79-1.05,2.63-.41.84.64,1.02,1.86.4,2.73Z"/>
  <path class="cls-20" d="m164.22,87.29c0,.89-.69,1.61-1.55,1.61-.86,0-1.55-.72-1.56-1.61,0-.89.69-1.61,1.55-1.61.86,0,1.55.72,1.56,1.61Z"/>
  <path class="cls-8" d="m156.45,85.85l.54,9.32,4.87-1.67-5.41-7.64Z"/>
  <path class="cls-17" d="m194.27,138.73c-5.53.53-16.01-1.28-22.08-5.15-7.95-5.08-14.33-17.89-16.76-22.42,0,0-2.03-.12-1.53.61s7.08,16.43,17.59,23.07c5.35,3.38,15.26,5.15,22.52,4.64l.26-.74Z"/>
  <path class="cls-16" d="m194.27,138.73c-5.53.53-16.01-1.28-22.08-5.15-7.95-5.08-14.33-17.89-16.76-22.42,0,0-2.03-.12-1.53.61s7.08,16.43,17.59,23.07c5.35,3.38,15.26,5.15,22.52,4.64l.26-.74Z"/>
  <path class="cls-17" d="m194.27,138.73s-19.96,3.25-32.41-1.07c-11.79-4.1-21.01-15.25-23.73-26.06l-2.34.39s5.78,19.46,22.77,26.17c15.69,6.19,34.49,1.39,35.71,1.27v-.7Z"/>
  <path class="cls-14" d="m194.27,138.73s-19.96,3.25-32.41-1.07c-11.79-4.1-21.01-15.25-23.73-26.06l-2.34.39s5.78,19.46,22.77,26.17c15.69,6.19,34.49,1.39,35.71,1.27v-.7Z"/>
  <path class="cls-17" d="m196.33,138.18s-1.47.22-2.06.37c-.82.2-1.16,1.17-.31,1.08.74-.08,1.35-.2,2.11-.32.75-.12,1.4-1.32.27-1.14Z"/>
  <path class="cls-17" d="m195.98,138.81s1.77.21,1.77.2c0-.01.47-.6.47-.6l-1.51-.08-.74.48Z"/>
  <path class="cls-16" d="m195.98,138.81s1.77.21,1.77.2c0-.01.47-.6.47-.6l-1.51-.08-.74.48Z"/>
  <path class="cls-20" d="m197.05,138.96l4.13,1.02,1.02-.58s-2.43-.7-5.14-.44Z"/>
  <path class="cls-5" d="m197.05,138.96v.24l3.84.94.28-.16-4.13-1.02Z"/>
  <path class="cls-17" d="m213.85,135.2s-.02-.08-.03-.11c0-.01-.01-.02-.01-.04-.02-.04-.05-.07-.08-.1-.02-.04-.06-.06-.1-.08-.01,0-.02-.02-.04-.02-.26-.15-1.37-.8-1.52-.87-.15-.09-.35-.08-.58.06l-13.91,8.01c-.46.27-.83.91-.83,1.44v30.37c0,.27.09.45.24.54.15.08,1.4.81,1.55.89.01,0,.02.01.04.01.02.02.05.02.08.03.06.01.12.01.18,0,.09,0,.18-.05.28-.1l13.91-8.02c.46-.26.83-.9.83-1.43v-30.38c0-.08,0-.15-.02-.21Zm-7.27,5.56l-3.12,1.8c.15-.46.49-.91.88-1.13l3.12-1.8c-.15.45-.48.89-.88,1.12Z"/>
  <path class="cls-10" d="m213.85,135.2s-.02-.08-.03-.11c0-.01-.01-.02-.01-.04-.02-.04-.05-.07-.08-.1-.02-.04-.06-.06-.1-.08-.01,0-.02-.02-.04-.02-.26-.15-1.37-.8-1.52-.87-.15-.09-.35-.08-.58.06l-13.91,8.01c-.46.27-.83.91-.83,1.44v30.37c0,.27.09.45.24.54.15.08,1.4.81,1.55.89.01,0,.02.01.04.01.02.02.05.02.08.03.06.01.12.01.18,0,.09,0,.18-.05.28-.1l13.91-8.02c.46-.26.83-.9.83-1.43v-30.38c0-.08,0-.15-.02-.21Zm-7.27,5.56l-3.12,1.8c.15-.46.49-.91.88-1.13l3.12-1.8c-.15.45-.48.89-.88,1.12Z"/>
  <path class="cls-17" d="m198.59,175.3s-.02,0-.04-.01c-.15-.08-1.4-.81-1.55-.9-.15-.08-.24-.27-.24-.54v-30.37c0-.27.09-.56.24-.82l1.56.89c-.15.26-.24.55-.24.82v30.37c0,.28.11.48.28.55Z"/>
  <path class="cls-14" d="m198.59,175.3s-.02,0-.04-.01c-.15-.08-1.4-.81-1.55-.9-.15-.08-.24-.27-.24-.54v-30.37c0-.27.09-.56.24-.82l1.56.89c-.15.26-.24.55-.24.82v30.37c0,.28.11.48.28.55Z"/>
  <path class="cls-17" d="m213.85,135.2s-.02-.08-.03-.11c0-.02-.02-.02-.02-.04-.02-.04-.05-.07-.08-.1-.02-.04-.06-.06-.1-.08-.01,0-.02-.01-.04-.02-.15-.06-.34-.04-.54.08l-6.47,3.73-3.53,2.03-3.92,2.25c-.45.27-.83.91-.83,1.44v30.37c0,.28.11.47.27.55.02.01.05.02.09.03.06.02.12.02.18,0,.09,0,.18-.04.28-.1l13.91-8.02c.46-.26.83-.9.83-1.43v-30.38c0-.08,0-.15-.02-.21Zm-9.51,6.23l3.12-1.8c-.15.45-.48.9-.88,1.12l-3.12,1.8c.15-.46.49-.91.88-1.13Z"/>
  <path class="cls-15" d="m208.85,139.89c0,.58-.44,1.3-.97,1.61l-3.53,2.03c-.54.31-.97.09-.97-.49,0-.15.03-.32.09-.48l3.12-1.81c.4-.23.74-.67.88-1.12l.41-.24c.54-.31.97-.09.97.49Z"/>
  <path class="cls-4" d="m201.14,147.13l9.9-5.7c.18-.1.32-.02.32.18v12.57c0,.2-.14.45-.32.55l-9.9,5.69c-.18.1-.32.02-.32-.19v-12.56c0-.2.14-.45.32-.55Z"/>
  <path class="cls-7" d="m210.84,154.86l-1.56.9-.19.11c-.62-.86-1.17-1.65-1.17-1.65-.2-.55-.33-1.03-.43-1.43h0c-.17-.7-.21-1.12-.21-1.12,0,0,0,0,0,0,.06-.02.67-.2,1.21,0,.33.12.68.46.92.88.25.43.91,1.52,1.4,2.32Z"/>
  <path class="cls-5" d="m209.28,155.75l-.19.11-1.8,1.04-.28.16-3.6,2.07-.15.08-.02-.62.18-2.87c0-.55.29-2.75.29-2.75l.82-.32.49-.2.16-.06.06-.03,1.36-.54c.09-.03.18-.06.26-.08h0s.06-.02.08-.02c.11-.03.22-.04.32-.05h0c1.01-.08,1.55.68,1.8,1.89.07.35.13,1.18.17,2.2Z"/>
  <path class="cls-20" d="m207.29,156.89l-.27.16c.09-1.3.03-2.94-.28-3.8.58,1.41.59,2.89.55,3.64Z"/>
  <path class="cls-7" d="m204.05,156.47s-.34,1.32-.63,2.65l-.15.08-2.04,1.17c.37-3.64.61-5.59,1.19-6.56.31-.53.8-.67,1.3-.85.46.34.65,1.98.33,3.51Z"/>
  <path class="cls-20" d="m204.69,146.62s-.47.16-.64.59c-.15.38-.1,1.22.1,2.11.2.89.38,1.41.5,1.65.12.24.35.26.35.26l-.02-1.09-.03-.76s.43-.75.47-1.3c.06-.72-.07-.99-.07-.99l-.67-.47Z"/>
  <path class="cls-20" d="m204.58,146.77l-.66-.23c.09-.24.31-.39.5-.32.18.06.25.31.16.55Z"/>
  <path class="cls-20" d="m205.44,147.54c0,1.13.8,1.91,1.79,1.73.98-.18,1.78-1.24,1.77-2.37,0-1.13-.8-1.9-1.78-1.73-.98.18-1.78,1.24-1.77,2.37Z"/>
  <path class="cls-21" d="m204.98,149.25c-.16.19-.29-.2-.43-.34-.13-.14-.57-.28-.79.29-.22.58.2,1.24.53,1.36.48.17.7-.43.7-.43l.05,2.47c.47.73,1.52,0,1.7.52.03-.4.58-.54.23-.93v-.75s.54,0,.8-.1c.44-.16.67-.58.8-1.15.21-.91.29-2.4,0-4.05-.49-.35-2.19.02-3.22.95.08,1.5-.22,1.97-.38,2.16Z"/>
  <path class="cls-20" d="m208.82,144.89s-.04-.05-.06-.04c-.02,0-.04.02-.06.04-.06.07-.21.23-.39.37.04-.21.04-.42,0-.61-.02-.12-.05-.4-.18-.41-.08,0-.15.08-.21.16-.54.67-1.23.53-1.88.66-.54.12-1.19.48-1.43,1.13-.11.3-.13.59.09.74.19.13.43.16.66.17,1.07.03,2.61.26,3.4-1.03.12-.19.17-.39.17-.63,0-.22-.04-.38-.11-.53,0,0,0,0,0,0Z"/>
  <path class="cls-8" d="m206.97,151.43s-.98-.05-1.32-.2c-.23-.1-.42-.31-.47-.45,0,0,.07.32.27.59.25.32,1.52.36,1.52.36v-.3Z"/>
  <path class="cls-20" d="m206.72,148.67c0,.13-.09.25-.2.27s-.2-.07-.2-.2.09-.25.2-.27c.11-.02.2.07.2.2Z"/>
  <path class="cls-20" d="m206.51,147.86l-.42.34c-.06-.13-.02-.31.1-.4.11-.09.26-.07.32.06Z"/>
  <path class="cls-8" d="m206.82,150.09l.55.14c-.05.19-.22.31-.37.28-.15-.04-.23-.22-.18-.41Z"/>
  <path class="cls-20" d="m208.38,147.71l-.38-.27c.08-.14.23-.19.33-.12.1.07.13.25.05.39Z"/>
  <path class="cls-20" d="m208.26,148.33c0,.13-.09.25-.2.27-.11.02-.2-.07-.2-.2s.09-.25.19-.27c.11-.02.2.07.2.2Z"/>
  <path class="cls-8" d="m207.35,148.28l.07,1.34.61-.35-.68-.99Z"/>
  <path class="cls-7" d="m205.02,151.65c-.13,0-.17.07-.27.32-.12.29-.21.55-.21.55,0,0,0,.54.42.94.42.4,1.34.54,1.34.54,0,0,.08-.51.13-.72.13-.47.32-.15.32-.15,0,0-.02-.17-.11-.24-.08-.07-.61-.01-1.03-.23-.42-.22-.58-.72-.58-.72v-.28Z"/>
  <path class="cls-7" d="m206.74,153.12c0-.26.06-.32.11-.41.12-.23.12-.41.12-.61,0-.21,0-.66,0-.66.14,0,.25,0,.34.24s.25.73.18,1.25c-.07.52-.26.73-.26.73,0,0-.11-.41-.18-.59-.07-.19-.2-.21-.3.06Z"/>
  <path class="cls-7" d="m202.83,161.02l6.52-3.76c.24-.14.43-.03.43.25v.17c0,.27-.19.6-.43.74l-6.52,3.76c-.24.14-.43.03-.43-.25v-.17c0-.27.19-.61.43-.74Z"/>
  <path class="cls-7" d="m201.24,165.43l2.33-1.34c.1-.06.18-.02.18.09s-.08.24-.18.3l-2.33,1.34c-.1.06-.18.02-.18-.09,0-.11.08-.24.18-.3Z"/>
  <path class="cls-7" d="m205.26,163.1l5.68-3.27c.1-.06.18-.02.18.09s-.08.24-.18.3l-5.68,3.27c-.1.06-.18.02-.18-.09,0-.11.08-.24.18-.3Z"/>
  <path class="cls-7" d="m201.24,166.2l2.33-1.35c.1-.06.18-.02.18.09s-.08.24-.18.3l-2.33,1.35c-.1.06-.18.02-.18-.09,0-.11.08-.24.18-.3Z"/>
  <path class="cls-7" d="m205.26,163.88l5.68-3.27c.1-.06.18-.02.18.09s-.08.24-.18.3l-5.68,3.27c-.1.06-.18.02-.18-.09,0-.11.08-.24.18-.3Z"/>
  <path class="cls-7" d="m201.24,166.97l2.33-1.34c.1-.06.18-.02.18.09s-.08.24-.18.3l-2.33,1.34c-.1.06-.18.02-.18-.09,0-.11.08-.24.18-.3Z"/>
  <path class="cls-7" d="m205.26,164.65l5.68-3.27c.1-.06.18-.02.18.09s-.08.24-.18.3l-5.68,3.27c-.1.06-.18.02-.18-.09,0-.11.08-.24.18-.3Z"/>
  <path class="cls-7" d="m201.24,167.74l2.33-1.35c.1-.06.18-.02.18.09s-.08.24-.18.3l-2.33,1.34c-.1.06-.18.02-.18-.09,0-.11.08-.24.18-.3Z"/>
  <path class="cls-7" d="m205.26,165.42l5.68-3.27c.1-.06.18-.02.18.09s-.08.24-.18.3l-5.68,3.27c-.1.06-.18.02-.18-.09,0-.11.08-.24.18-.3Z"/>
  <path class="cls-7" d="m202.07,169.12v2.42l.7-.4v-2.42l-.7.4Z"/>
  <path class="cls-7" d="m204.17,167.9v2.42l.7-.4v-2.42l-.7.4Z"/>
  <path class="cls-7" d="m206.97,166.29v2.42l.7-.4v-2.42l-.7.4Z"/>
  <path class="cls-7" d="m209.42,164.88v2.42l.7-.4v-2.42l-.7.4Z"/>
  <path class="cls-7" d="m203.12,168.51v2.42l.35-.2v-2.42l-.35.2Z"/>
  <path class="cls-7" d="m208.02,165.69v2.42l.35-.2v-2.42l-.35.2Z"/>
  <path class="cls-7" d="m205.92,166.9v2.42l.35-.2v-2.42l-.35.2Z"/>
  <path class="cls-7" d="m203.82,168.11v2.42l.18-.1v-2.42l-.18.1Z"/>
  <path class="cls-7" d="m206.51,166.56v2.42l.18-.1v-2.42l-.18.1Z"/>
  <path class="cls-7" d="m205.39,167.2v2.42l.17-.1v-2.42l-.17.1Z"/>
  <path class="cls-7" d="m208.9,165.18v2.42l.18-.1v-2.42l-.18.1Z"/>
  <path class="cls-7" d="m205.04,167.4v2.42s.18-.1.18-.1v-2.42l-.18.1Z"/>
  <path class="cls-7" d="m208.54,165.39v2.42l.18-.1v-2.42l-.18.1Z"/>
  <path class="cls-14" d="m203.25,162.62l5.68-3.27c.1-.06.18-.02.18.09s-.08.24-.18.3l-5.68,3.27c-.1.06-.18.02-.18-.09s.08-.24.18-.3Z"/>
  <path class="cls-21" d="m218.96,164.07h0c-.02-1.13.55-1.91,0-3.3-.55-1.39-2.87-3.82-3.98-5.9-1.1-2.08-1.91-2.6-2.69-1.65-.67.82.96,4.85,1.45,6.01-.87-.46-1.71-.65-2.4-.22-1.56.98.85,3.22.85,3.22,0,0-1.84.39-1.94,1.65-.11,1.27,2.28,3.61,2.28,3.61l-9.39,5.41s2.56.73,4.9.91c.78.06,1.88.09,2.52.03,2.98-.29,4.15-.83,5.85-2.5,1.7-1.66,2.81-4.41,2.81-4.41.42-.91.24-1.92-.26-2.88Z"/>
  <path class="cls-8" d="m213.57,168.52l-1.04-1.01-9.39,5.41s2.57.73,4.91.91l5.52-5.31Z"/>
  <path class="cls-7" d="m204.86,141.38c.32-.18.22-1.23-.31-1.54-1.17-.68-4.97-1.12-7.5-1.11l2.16-1.25c2.53,0,6.33.43,7.5,1.11.53.31.63,1.35.31,1.54l-2.16,1.25Z"/>
  <path class="cls-5" d="m204.86,141.38c-.08.05-.18.04-.32-.05l.2-.11s.01-.01.02-.03c0-.02.05-.11.05-.28v-.08c-.02-.28-.14-.63-.38-.77-1.15-.66-4.91-1.08-7.26-1.08h-.12v-.23c2.53,0,6.32.43,7.5,1.11.53.31.63,1.36.31,1.54Z"/>
  <path class="cls-13" d="m200.42,137.88l-.15.08-.83.44c-.11.06-.3.1-.43.09h-.33s-.08-.01-.08-.01c-.13,0-.14-.07-.03-.13l.86-.5c.11-.06.3-.11.42-.11h.54c.13.02.14.08.03.13Z"/>
  <path class="cls-13" d="m200.26,137.97l-.83.44c-.11.06-.3.1-.43.09h-.33s.74-.44.74-.44c.11-.06.3-.12.42-.11h.42Z"/>
  <path class="cls-17" d="m198.77,138.44l.09-.05c-.03-.13-.41-.21-1.17-.11-1.07.15-1.71.54-1.71.54,0,0,.24-.44.93-.82.7-.38,2.51-.33,2.63,0,.01.04.04.11-.03.16-.1.06-.26.18-.4.25-.08.04-.26.03-.34.02Z"/>
  <path class="cls-14" d="m198.77,138.44l.09-.05c-.03-.13-.41-.21-1.17-.11-1.07.15-1.71.54-1.71.54,0,0,.24-.44.93-.82.7-.38,2.51-.33,2.63,0,.01.04.04.11-.03.16-.1.06-.26.18-.4.25-.08.04-.26.03-.34.02Z"/>
  <path class="cls-7" d="m137.98,105.78c-.98.07-1.39.2-2.19,1.79-.91,1.82-1.7,3.48-1.7,3.48,0,0,0,3.69,3.33,7.06,3.29,3.34,10.6,5.59,10.6,5.59,0,0,.61-3.37,1.07-4.75,1.02-3.03,2.55-.62,2.55-.62,0,0-.18-1.21-.83-1.79-.65-.58-4.83-.94-8.16-3.03-3.33-2.09-4.62-5.77-4.62-5.77l-.05-1.96Z"/>
  <path class="cls-7" d="m151.65,118.33c0-1.79.52-2.13.88-2.67.94-1.38.93-2.65.94-4.06.01-1.4,0-4.55,0-4.55,1.14.15,1.97.34,2.68,2.1.71,1.76,2,5.35,1.42,8.85-.59,3.51-2.1,4.67-2.1,4.67,0,0-.87-2.96-1.41-4.33-.54-1.37-1.59-1.73-2.41-.01Z"/>
  <path class="cls-17" d="m292.86,33.66c-.03-.17-.1-.34-.14-.48-.03-.07-.07-.1-.07-.17-.1-.17-.2-.31-.34-.44-.1-.17-.27-.27-.44-.37-.07-.03-.1-.07-.17-.1-1.16-.68-6.1-3.53-6.74-3.87-.65-.37-1.57-.34-2.59.27l-61.81,35.58c-2.04,1.19-3.68,4.04-3.68,6.39v134.95c0,1.19.41,2,1.09,2.38.65.37,6.23,3.6,6.88,3.98.07.03.1.07.17.07.1.07.24.1.37.14.27.07.51.07.82,0,.41-.03.82-.2,1.26-.44l61.81-35.62c2.04-1.15,3.68-4.01,3.68-6.35V34.58c0-.34-.04-.65-.1-.92Z"/>
  <path class="cls-10" d="m292.86,33.66c-.03-.17-.1-.34-.14-.48-.03-.07-.07-.1-.07-.17-.1-.17-.2-.31-.34-.44-.1-.17-.27-.27-.44-.37-.07-.03-.1-.07-.17-.1-1.16-.68-6.1-3.53-6.74-3.87-.65-.37-1.57-.34-2.59.27l-61.81,35.58c-2.04,1.19-3.68,4.04-3.68,6.39v134.95c0,1.19.41,2,1.09,2.38.65.37,6.23,3.6,6.88,3.98.07.03.1.07.17.07.1.07.24.1.37.14.27.07.51.07.82,0,.41-.03.82-.2,1.26-.44l61.81-35.62c2.04-1.15,3.68-4.01,3.68-6.35V34.58c0-.34-.04-.65-.1-.92Z"/>
  <path class="cls-17" d="m225.02,211.85c-.07,0-.1-.03-.17-.07-.65-.37-6.23-3.6-6.88-3.98-.68-.37-1.09-1.19-1.09-2.38V70.47c0-1.19.41-2.48,1.09-3.64l6.91,3.98c-.68,1.16-1.09,2.45-1.09,3.64v134.95c0,1.26.48,2.11,1.23,2.45Z"/>
  <path class="cls-14" d="m225.02,211.85c-.07,0-.1-.03-.17-.07-.65-.37-6.23-3.6-6.88-3.98-.68-.37-1.09-1.19-1.09-2.38V70.47c0-1.19.41-2.48,1.09-3.64l6.91,3.98c-.68,1.16-1.09,2.45-1.09,3.64v134.95c0,1.26.48,2.11,1.23,2.45Z"/>
  <path class="cls-17" d="m292.86,33.67c-.03-.17-.1-.34-.14-.48-.03-.07-.07-.1-.07-.17-.1-.17-.2-.31-.34-.44-.1-.17-.27-.27-.44-.37-.07-.03-.1-.07-.17-.1-.65-.27-1.5-.17-2.42.37l-28.74,16.55-15.67,9.04-17.4,9.99c-2.01,1.19-3.68,4.04-3.68,6.39v134.95c0,1.26.48,2.11,1.23,2.45.1.07.24.1.37.14.27.07.55.07.82,0,.41-.03.82-.2,1.26-.44l61.81-35.62c2.04-1.15,3.68-4.01,3.68-6.35V34.58c0-.34-.03-.65-.1-.92Z"/>
  <path class="cls-4" d="m234.92,76.27l46.92-27.03c.84-.48,1.52-.09,1.52.88v59.6c0,.97-.68,2.15-1.52,2.63l-46.92,26.98c-.84.48-1.52.09-1.52-.88v-59.55c0-.97.68-2.15,1.52-2.63Z"/>
  <path class="cls-7" d="m280.85,112.91l-7.38,4.24-.89.51c-2.94-4.07-5.52-7.84-5.52-7.84-.93-2.59-1.58-4.89-2.03-6.76h0c-.8-3.31-.98-5.31-.98-5.31,0,0,.01,0,.03,0,.28-.09,3.18-.95,5.76,0,1.58.59,3.23,2.2,4.38,4.14,1.19,2.01,4.32,7.2,6.62,11.01Z"/>
  <path class="cls-5" d="m273.48,117.15l-.89.51-8.53,4.9-1.3.75-17.06,9.82-.7.4-.08-2.93.86-13.59c0-2.62,1.36-13.06,1.36-13.06l3.87-1.54,2.34-.93.76-.3.31-.12,6.46-2.58c.43-.15.83-.27,1.23-.38h.02c.13-.04.27-.07.4-.1.54-.13,1.04-.21,1.53-.25h.04c4.8-.37,7.36,3.23,8.54,8.98.34,1.65.61,5.61.83,10.42Z"/>
  <path class="cls-20" d="m264.07,122.57l-1.3.75c.43-6.17.16-13.93-1.32-18,2.75,6.71,2.82,13.68,2.62,17.25Z"/>
  <path class="cls-7" d="m248.69,120.56s-1.61,6.25-2.98,12.56l-.7.4-9.66,5.56c1.74-17.27,2.89-26.49,5.62-31.11,1.49-2.53,3.77-3.16,6.18-4.03,2.19,1.63,3.09,9.39,1.54,16.62Z"/>
  <path class="cls-20" d="m251.71,73.87s-2.21.74-3.01,2.8c-.7,1.79-.45,5.77.49,9.99s1.82,6.71,2.37,7.82c.55,1.12,1.69,1.26,1.69,1.26l-.11-5.18-.16-3.6s2.02-3.53,2.24-6.18c.29-3.4-.33-4.67-.33-4.67l-3.17-2.25Z"/>
  <path class="cls-20" d="m251.19,74.59l-3.11-1.09c.44-1.14,1.5-1.83,2.35-1.53.86.3,1.2,1.47.76,2.62Z"/>
  <path class="cls-20" d="m255.27,78.27c.02,5.36,3.8,9.03,8.46,8.19,4.66-.84,8.42-5.86,8.4-11.22-.01-5.36-3.8-9.03-8.46-8.19-4.66.84-8.42,5.86-8.4,11.22Z"/>
  <path class="cls-21" d="m253.09,86.35c-.76.89-1.38-.96-2.02-1.61-.64-.65-2.72-1.33-3.75,1.37-1.05,2.75.95,5.89,2.51,6.45,2.28.82,3.3-2.01,3.3-2.01l.24,11.69c2.21,3.48,7.19.04,8.07,2.46.15-1.92,2.74-2.56,1.11-4.43l-.02-3.56s2.55-.01,3.8-.46c2.07-.74,3.15-2.73,3.78-5.43,1-4.33,1.4-11.39.01-19.21-2.32-1.66-10.37.1-15.24,4.51.36,7.09-1.04,9.35-1.79,10.24Z"/>
  <path class="cls-20" d="m271.28,65.68c-.06-.13-.17-.24-.3-.21-.11.02-.2.11-.28.19-.31.31-.98,1.08-1.85,1.76.17-.98.18-1.98.03-2.91-.09-.57-.24-1.91-.87-1.94-.38-.02-.7.4-.98.75-2.53,3.18-5.84,2.5-8.89,3.14-2.55.54-5.63,2.28-6.79,5.34-.53,1.4-.62,2.8.43,3.52.89.62,2.03.76,3.11.79,5.08.12,12.37,1.25,16.13-4.87.55-.9.79-1.85.79-3,0-1.06-.2-1.81-.51-2.52,0-.01-.01-.02-.01-.03Z"/>
  <path class="cls-8" d="m262.53,96.7s-4.63-.24-6.25-.94c-1.08-.47-1.98-1.46-2.24-2.15,0,0,.31,1.53,1.28,2.78,1.19,1.53,7.22,1.73,7.22,1.73v-1.42Z"/>
  <path class="cls-20" d="m261.33,83.62c0,.61-.41,1.18-.92,1.27-.51.09-.93-.33-.93-.95,0-.61.41-1.18.92-1.27.51-.09.93.33.93.95Z"/>
  <path class="cls-20" d="m260.34,79.77l-1.98,1.62c-.29-.6-.09-1.46.46-1.9.55-.45,1.23-.32,1.52.28Z"/>
  <path class="cls-8" d="m261.85,90.32l2.59.65c-.25.9-1.04,1.48-1.76,1.3-.71-.18-1.09-1.06-.84-1.96Z"/>
  <path class="cls-20" d="m269.21,79.06l-1.81-1.28c.37-.66,1.07-.91,1.57-.56.5.35.61,1.18.24,1.84Z"/>
  <path class="cls-20" d="m268.66,82c0,.61-.41,1.18-.92,1.27-.51.09-.93-.33-.93-.95,0-.61.41-1.18.92-1.27.51-.09.93.33.93.95Z"/>
  <path class="cls-8" d="m264.32,81.77l.32,6.37,2.91-1.67-3.23-4.7Z"/>
  <path class="cls-7" d="m253.28,97.7c-.61.04-.82.31-1.3,1.51-.55,1.37-1.01,2.61-1.01,2.61,0,0,0,2.54,1.99,4.46,1.97,1.9,6.33,2.57,6.33,2.57,0,0,.36-2.4.64-3.41.61-2.21,1.52-.74,1.52-.74,0,0-.11-.82-.5-1.14-.39-.32-2.88-.06-4.87-1.1-1.99-1.04-2.76-3.41-2.76-3.41l-.03-1.35Z"/>
  <path class="cls-7" d="m261.44,104.7c0-1.24.31-1.53.53-1.95.56-1.07.56-1.94.56-2.91,0-.97,0-3.14,0-3.14.68-.04,1.18,0,1.6,1.12s1.2,3.44.85,5.93-1.25,3.47-1.25,3.47c0,0-.52-1.94-.84-2.81s-.95-1-1.44.28Z"/>
  <path class="cls-17" d="m223.79,93.86l-6.91-3.98-16.56,17.51c-.54.57-.34,1.42.24,1.77.2.12,6.34,3.64,6.92,3.99.19.12.43.17.69.15l15.63-1.5v-17.93Z"/>
  <path class="cls-10" d="m223.79,93.86l-6.91-3.98-16.56,17.51c-.54.57-.34,1.42.24,1.77.2.12,6.34,3.64,6.92,3.99.19.12.43.17.69.15l15.63-1.5v-17.93Z"/>
  <path class="cls-17" d="m223.79,93.86l-16.56,17.51c-.54.58-.33,1.43.25,1.77.19.12.43.18.69.15l15.63-1.5v-17.93Z"/>
  <path class="cls-7" d="m242.92,141.36l30.92-17.81c1.12-.65,2.03-.12,2.03,1.17v.81c0,1.29-.91,2.87-2.04,3.52l-30.92,17.81c-1.12.65-2.03.12-2.03-1.17v-.81c0-1.29.91-2.87,2.03-3.52Z"/>
  <path class="cls-7" d="m235.37,162.96l11.03-6.37c.47-.27.85-.08.85.43s-.38,1.13-.85,1.41l-11.03,6.37c-.47.27-.85.08-.85-.43s.38-1.14.85-1.4Z"/>
  <path class="cls-7" d="m254.45,151.97l26.93-15.52c.47-.27.85-.08.85.43s-.38,1.14-.85,1.4l-26.93,15.51c-.47.27-.85.08-.85-.43,0-.51.38-1.13.85-1.4Z"/>
  <path class="cls-7" d="m235.37,166.62l11.03-6.37c.47-.27.85-.08.85.43s-.38,1.14-.85,1.41l-11.03,6.37c-.47.27-.85.08-.85-.43s.38-1.14.85-1.41Z"/>
  <path class="cls-7" d="m254.45,155.63l26.93-15.52c.47-.27.85-.08.85.43s-.38,1.14-.85,1.4l-26.93,15.51c-.47.27-.85.08-.85-.43s.38-1.13.85-1.4Z"/>
  <path class="cls-7" d="m235.37,170.29l11.03-6.37c.47-.27.85-.08.85.43s-.38,1.14-.85,1.41l-11.03,6.37c-.47.27-.85.08-.85-.43s.38-1.14.85-1.41Z"/>
  <path class="cls-7" d="m254.45,159.3l26.93-15.52c.47-.27.85-.08.85.43s-.38,1.14-.85,1.4l-26.93,15.51c-.47.27-.85.08-.85-.43,0-.51.38-1.13.85-1.4Z"/>
  <path class="cls-7" d="m235.37,173.96l11.03-6.37c.47-.27.85-.08.85.43s-.38,1.14-.85,1.41l-11.03,6.37c-.47.27-.85.08-.85-.43s.38-1.13.85-1.4Z"/>
  <path class="cls-7" d="m254.45,162.96l26.93-15.52c.47-.27.85-.08.85.43s-.38,1.13-.85,1.4l-26.93,15.51c-.47.27-.85.08-.85-.43,0-.51.38-1.13.85-1.4Z"/>
  <path class="cls-7" d="m239.29,180.48v11.47l3.32-1.91v-11.47l-3.32,1.91Z"/>
  <path class="cls-7" d="m249.25,174.74v11.47l3.32-1.91v-11.47l-3.32,1.91Z"/>
  <path class="cls-7" d="m262.53,167.09v11.47l3.32-1.91v-11.47l-3.32,1.91Z"/>
  <path class="cls-7" d="m274.14,160.4v11.47l3.32-1.91v-11.47l-3.32,1.91Z"/>
  <path class="cls-7" d="m244.27,177.61v11.47l1.66-.96v-11.47s-1.66.96-1.66.96Z"/>
  <path class="cls-7" d="m267.5,164.22v11.47s1.66-.96,1.66-.96v-11.47l-1.66.96Z"/>
  <path class="cls-7" d="m257.55,169.96v11.47s1.66-.96,1.66-.96v-11.47l-1.66.96Z"/>
  <path class="cls-7" d="m247.59,175.7v11.47l.83-.48v-11.47l-.83.48Z"/>
  <path class="cls-7" d="m260.34,168.35v11.47s.83-.48.83-.48v-11.47s-.83.48-.83.48Z"/>
  <path class="cls-7" d="m255.06,171.4v11.47l.83-.48v-11.47s-.83.48-.83.48Z"/>
  <path class="cls-7" d="m271.65,161.83v11.47l.83-.48v-11.48l-.83.48Z"/>
  <path class="cls-7" d="m253.4,172.35v11.47s.83-.48.83-.48v-11.47l-.83.48Z"/>
  <path class="cls-7" d="m269.99,162.8v11.47l.83-.48v-11.47l-.83.48Z"/>
  <path class="cls-14" d="m244.91,148.94l26.93-15.51c.47-.27.85-.08.85.43s-.38,1.13-.85,1.4l-26.93,15.51c-.47.27-.85.08-.85-.43,0-.51.38-1.13.85-1.4Z"/>
  <path d="m195.74,373.76c.84,0,1.57.17,2.2.52.64.33,1.14.86,1.5,1.58.36.72.54,1.65.54,2.78,0,.81-.09,1.57-.28,2.26-.17.69-.43,1.33-.78,1.92l-.1.58c-.56.81-1.28,1.52-2.16,2.12-.88.6-1.89,1.07-3.04,1.4-1.15.33-2.41.5-3.8.5h-.2c-1.21,0-2.27-.12-3.18-.36-.89-.24-1.59-.61-2.08-1.1-.48-.48-.72-1.09-.72-1.82,0-.33.06-.63.18-.88.13-.24.32-.44.56-.6.23-.15.49-.25.8-.32.32-.07.86-.1,1.62-.1h15.76v-12.48h2.98v14.62h-8.72l-1.3-.2h-8.5c-.23,0-.4.02-.52.06-.11.04-.16.13-.16.28,0,.17.11.33.34.46.24.15.59.26,1.04.34.45.08.99.12,1.62.12h.3c1.49,0,2.72-.17,3.68-.5.96-.32,1.76-.79,2.4-1.4l.3-.72c.33-.52.59-1.12.78-1.8.19-.67.28-1.38.28-2.14,0-1.12-.18-1.89-.54-2.32-.36-.44-.85-.66-1.48-.66-.49,0-.92.11-1.28.32-.35.2-.71.47-1.1.82l-.1-2.18c.43-.31.89-.57,1.38-.78.49-.21,1.09-.32,1.78-.32Zm-11.16,7.24v-11.24h11.82v2.14h-2.88v9.1h-2.98v-9.1h-2.98v9.1h-2.98Zm28.08.24c-.92,0-1.73-.19-2.42-.56-.69-.37-1.23-.93-1.62-1.68-.39-.75-.58-1.68-.58-2.8,0-1.33.33-2.5,1-3.5.67-1,1.62-1.78,2.86-2.34,1.25-.56,2.74-.84,4.46-.84.83,0,1.57.05,2.24.16.68.09,1.32.26,1.92.5.6.24,1.21.56,1.84.96l.5.32c.92.71,1.67,1.54,2.26,2.5.59.95.88,2.05.88,3.3,0,.81-.16,1.52-.48,2.12-.31.6-.75,1.06-1.34,1.38-.59.32-1.3.48-2.14.48-.96,0-1.74-.18-2.34-.54-.59-.36-1.02-.84-1.3-1.44-.28-.61-.42-1.28-.42-2,0-.76.11-1.48.34-2.16.23-.68.54-1.32.94-1.92.4-.6.86-1.15,1.38-1.66l.4-.24c.71-.6,1.47-1.04,2.28-1.32.83-.29,1.65-.44,2.46-.44,1.45,0,2.62.27,3.5.8.89.53,1.54,1.25,1.94,2.14.41.88.62,1.85.62,2.9,0,.81-.09,1.59-.28,2.32-.17.72-.39,1.39-.66,2-.27.6-.55,1.12-.84,1.56l-2.46-1.2c.35-.55.64-1.18.88-1.9.25-.73.38-1.6.38-2.6,0-.81-.14-1.51-.42-2.08-.27-.57-.65-1.01-1.16-1.3-.49-.31-1.09-.46-1.8-.46-.52,0-1,.07-1.44.22-.44.13-.87.38-1.28.74-.41.28-.77.63-1.08,1.06-.29.43-.52.93-.68,1.5-.16.56-.24,1.19-.24,1.9s.11,1.27.34,1.6c.23.32.51.48.86.48.32,0,.57-.1.74-.3.19-.2.31-.46.38-.78.07-.33.1-.69.1-1.06,0-.83-.21-1.62-.62-2.38-.4-.76-.99-1.36-1.76-1.8-.63-.43-1.31-.73-2.04-.9-.73-.19-1.52-.28-2.36-.28-1.13,0-2.1.17-2.9.52-.8.33-1.43.78-1.88,1.34-.45.56-.74,1.17-.86,1.84-.01.15-.03.29-.06.44-.01.15-.02.35-.02.62,0,.65.07,1.18.2,1.58.15.4.36.69.64.88.28.17.61.26,1,.26.31,0,.56-.06.76-.18.21-.12.37-.29.48-.52.12-.23.18-.5.18-.82,0-.49-.14-.88-.42-1.16-.27-.28-.64-.42-1.12-.42-.56,0-1.05.17-1.48.5-.43.32-.83.67-1.22,1.06l-.44-1.92c.49-.47,1.05-.86,1.68-1.18.63-.32,1.36-.48,2.2-.48,1.08,0,1.95.3,2.6.9.67.6,1,1.45,1,2.56,0,.77-.15,1.44-.46,2-.31.55-.76.97-1.36,1.28-.6.29-1.35.44-2.26.44Zm32.68-11.72c1.24,0,2.25.27,3.02.8.77.52,1.34,1.24,1.7,2.16.37.92.56,1.96.56,3.12,0,1.01-.12,1.86-.36,2.54-.23.68-.59,1.23-1.1,1.66-.36.31-.77.55-1.22.72-.45.17-1,.3-1.64.38-.63.07-1.41.1-2.34.1h-9.5v-11.24h2.98v9.1h3.68v-4.96c0-.83.09-1.5.26-2.02.19-.52.45-.95.8-1.3.36-.35.8-.61,1.32-.78.53-.19,1.15-.28,1.84-.28Zm.2,2.14c-.17,0-.35.03-.52.08-.16.05-.31.15-.44.28-.17.17-.3.41-.38.72-.07.29-.1.78-.1,1.46v4.66h.76c.71,0,1.26-.1,1.66-.3.41-.21.7-.56.86-1.04.17-.48.26-1.12.26-1.92,0-.73-.07-1.39-.2-1.98-.13-.6-.35-1.07-.66-1.42-.31-.36-.72-.54-1.24-.54Zm-8.1,10.2c.27,0,.54,0,.82.02.29.03.56.07.8.12l-.14,1.98c-.13-.03-.29-.05-.48-.06h-.6c-.33,0-.62.05-.86.14-.23.11-.34.28-.34.52,0,.21.08.37.24.48.17.11.39.18.64.22.27.04.54.06.82.06h.54c.59,0,1.09-.07,1.52-.2.44-.13.81-.34,1.12-.62.32-.27.59-.61.8-1.02.08-.15.22-.29.42-.42.2-.12.48-.22.84-.3.36-.07.81-.1,1.34-.1l1.82.58c-.57.12-.99.26-1.26.42-.25.17-.44.39-.56.66-.31.71-.73,1.29-1.26,1.74-.52.47-1.15.81-1.9,1.02-.75.21-1.63.32-2.64.32h-.74c-.72,0-1.39-.08-2.02-.24-.61-.16-1.1-.37-1.46-.62-.28-.19-.53-.45-.76-.78-.21-.33-.32-.75-.32-1.24,0-.83.31-1.48.94-1.96.63-.48,1.52-.72,2.68-.72Zm6.72,2.82l-.18-.24c-.53-.12-1.01-.31-1.44-.58-.41-.25-.75-.62-1-1.1-.24-.47-.37-1.06-.4-1.78l2.88-.02c0,.32.05.59.16.82.12.24.31.42.56.54.19.09.4.15.64.18.24.04.57.06.98.06h2.12v2.12h-4.32Zm12.93-3.44c-.92,0-1.73-.19-2.42-.56-.68-.37-1.21-.93-1.6-1.68-.39-.76-.58-1.7-.58-2.82,0-1.44.31-2.65.94-3.64.63-.99,1.48-1.73,2.56-2.24,1.08-.52,2.29-.78,3.64-.78,1.23,0,2.27.16,3.12.48.85.31,1.55.73,2.08,1.28.53.53.92,1.15,1.16,1.86.24.69.36,1.42.36,2.18,0,.65-.07,1.28-.2,1.88-.13.59-.31,1.14-.52,1.66h4.22v-9.1h2.98v11.24h-10.26l-.1-1.62c.25-.45.47-.99.64-1.62.17-.63.26-1.33.26-2.1,0-.84-.15-1.55-.46-2.14-.29-.59-.73-1.03-1.32-1.34-.59-.32-1.31-.48-2.18-.48s-1.68.21-2.32.64c-.64.43-1.13,1-1.46,1.72-.33.71-.5,1.49-.5,2.36,0,.67.07,1.21.22,1.62.15.4.35.69.62.88.28.17.61.26,1,.26.31,0,.56-.06.76-.18.21-.12.37-.29.48-.52.12-.23.18-.5.18-.82,0-.51-.14-.89-.42-1.16-.27-.28-.64-.42-1.12-.42-.56,0-1.06.17-1.5.5-.44.32-.84.67-1.2,1.06l-.44-1.92c.49-.47,1.05-.86,1.68-1.18.63-.32,1.36-.48,2.2-.48,1.07,0,1.93.3,2.6.9.67.6,1,1.45,1,2.56,0,.77-.16,1.44-.48,2-.31.55-.77.97-1.38,1.28-.6.29-1.35.44-2.24.44Zm12.76,5.42v-5.98h2.98v5.98h-2.98Z"/>
</svg>