<?xml version="1.0" encoding="UTF-8"?>
<svg id="Layer_1" data-name="Layer 1" xmlns="http://www.w3.org/2000/svg" xmlns:xlink="http://www.w3.org/1999/xlink" viewBox="0 0 450 450">
  <defs>
    <style>
      .cls-1 {
        fill: #5cb7c6;
      }

      .cls-2 {
        fill: rgba(196, 255, 176, .31);
      }

      .cls-3 {
        fill: url(#linear-gradient-2);
      }

      .cls-3, .cls-4, .cls-5, .cls-6 {
        opacity: .3;
      }

      .cls-3, .cls-4, .cls-6 {
        isolation: isolate;
      }

      .cls-7 {
        fill: #fff;
      }

      .cls-8 {
        fill: #d2d5d6;
      }

      .cls-9 {
        fill: #edeeef;
      }

      .cls-10 {
        fill: #84cdb3;
      }

      .cls-11 {
        fill: #f5f5f5;
      }

      .cls-12 {
        fill: #455a64;
      }

      .cls-13 {
        fill: #c9c9c7;
      }

      .cls-14 {
        fill: #ffbf9d;
      }

      .cls-15 {
        fill: #e0e0e0;
      }

      .cls-16 {
        fill: #ff9a6c;
      }

      .cls-17 {
        fill: #c0c2c3;
      }

      .cls-4 {
        fill: url(#linear-gradient-3);
      }

      .cls-18 {
        fill: #84cd98;
      }

      .cls-19 {
        fill: #92e3a9;
      }

      .cls-20 {
        fill: #3d3d3c;
      }

      .cls-21 {
        fill: #afafaf;
      }

      .cls-22 {
        fill: #f3bc97;
      }

      .cls-5 {
        fill: none;
      }

      .cls-23 {
        fill: #442e1d;
      }

      .cls-24 {
        fill: #c69a2c;
      }

      .cls-25 {
        fill: #d5ac36;
      }

      .cls-6 {
        fill: url(#linear-gradient);
      }

      .cls-26 {
        fill: #263238;
      }
    </style>
    <linearGradient id="linear-gradient" x1="121.59" y1="389.4" x2="276.23" y2="50.75" gradientTransform="translate(0 460) scale(1 -1)" gradientUnits="userSpaceOnUse">
      <stop offset=".31" stop-color="#c9e4ef"/>
      <stop offset=".65" stop-color="#c9e4ef"/>
    </linearGradient>
    <linearGradient id="linear-gradient-2" x1="270.17" y1="345.61" x2="419.61" y2="18.34" gradientTransform="translate(0 460) scale(1 -1)" gradientUnits="userSpaceOnUse">
      <stop offset=".31" stop-color="#c9e4ef"/>
      <stop offset=".65" stop-color="#c9e4ef"/>
    </linearGradient>
    <linearGradient id="linear-gradient-3" x1="346.84" y1="279.1" x2="499.72" y2="-55.7" gradientTransform="translate(0 460) scale(1 -1)" gradientUnits="userSpaceOnUse">
      <stop offset=".31" stop-color="#c9e4ef"/>
      <stop offset=".65" stop-color="#c9e4ef"/>
    </linearGradient>
  </defs>
  <rect class="cls-2" width="450" height="450" rx="25" ry="25" shape-rendering="crispEdges"/>
  <path class="cls-11" d="m175.54,400c85.9,0,155.54-41.25,155.54-92.13s-69.64-92.13-155.54-92.13S20,256.98,20,307.87s69.64,92.13,155.54,92.13Z"/>
  <path class="cls-9" d="m162.46,252.35l3.9-1.79-101.86-46.51-3.9,1.79,101.86,46.51Z"/>
  <path class="cls-8" d="m60.61,205.83l3.9-1.79-.19-131.4-3.9,1.79.19,131.4Z"/>
  <path class="cls-8" d="m60.42,72.62l3.9-1.79.06-45.12-3.9,1.79-.06,45.12Z"/>
  <path class="cls-9" d="m271.74,302.24l-107.29-48.99,3.9-1.79,103.39,47.21v3.58Z"/>
  <path class="cls-8" d="m164.45,253.25l3.9-1.8-.19-131.4-3.9,1.79.19,131.4Z"/>
  <path class="cls-9" d="m162.28,119.14l3.9-1.79-101.86-46.51-3.9,1.79,101.86,46.51Z"/>
  <path class="cls-8" d="m164.26,120.04l3.9-1.79.06-45.12-3.9,1.79-.06,45.12Z"/>
  <path class="cls-9" d="m271.74,169.12l-107.48-49.08,3.9-1.79,103.57,47.29v3.58Z"/>
  <path class="cls-9" d="m271.74,122.16L58.51,24.79l3.9-1.79,209.33,95.59v3.58Z"/>
  <path class="cls-8" d="m58.51,24.79l.11,181.93,213.12,97.32v-1.81l-107.29-49-.19-131.4,107.48,49.08v-1.81l-107.48-49.08.07-45.12,107.41,49.05v-1.81L58.51,24.79Zm103.84,49.22l-.06,45.12-101.86-46.51.06-45.12,101.86,46.51Zm-101.93.41l101.86,46.51.19,131.4-101.86-46.51-.19-131.4Z"/>
  <path class="cls-9" d="m158.96,253.94l3.9-1.79-101.86-46.51-3.9,1.79,101.86,46.51Z"/>
  <path class="cls-8" d="m57.1,207.43l3.9-1.79-.19-131.4-3.9,1.79.19,131.4Z"/>
  <path class="cls-8" d="m56.92,74.22l3.9-1.79.06-45.12-3.9,1.79-.06,45.12Z"/>
  <path class="cls-9" d="m164.84,253.05l106.9,48.81v2.54l-1.13.52-109.67-50.08,3.9-1.79Z"/>
  <path class="cls-8" d="m160.94,254.85l3.9-1.79-.19-131.4-3.9,1.79.19,131.4Z"/>
  <path class="cls-9" d="m158.77,120.74l3.9-1.79-101.86-46.51-3.9,1.79,101.86,46.51Z"/>
  <path class="cls-8" d="m160.76,121.64l3.9-1.79.06-45.12-3.9,1.79-.06,45.12Z"/>
  <path class="cls-9" d="m164.66,119.85l107.08,48.9v2.37l-1.32.6-109.67-50.08,3.9-1.79Z"/>
  <path class="cls-9" d="m271.74,125.36L55,26.39l3.9-1.79,212.84,97.19v3.58Z"/>
  <path class="cls-6" d="m271.74,123.12v180.79L57.31,206.12V24.99l214.43,98.13Z"/>
  <path class="cls-9" d="m382.87,352.99l-107.29-48.99,3.9-1.8,103.39,47.21v3.57Z"/>
  <path class="cls-8" d="m275.58,304l3.9-1.8-.19-131.4-3.9,1.79.19,131.4Z"/>
  <path class="cls-8" d="m275.39,170.8l3.9-1.79.06-45.12-3.9,1.79-.07,45.12Z"/>
  <path class="cls-9" d="m382.87,219.88l-107.48-49.08,3.9-1.79,103.57,47.3v3.58Z"/>
  <path class="cls-9" d="m271.06,118.29l111.81,51.06v3.58l-111.81-51.06v-3.58Z"/>
  <path class="cls-8" d="m271.06,301.94l2.54,1.16-.19-131.4-2.35-1.07v-1.81l2.35,1.07.06-45.12-2.42-1.1v-1.81l111.81,51.06v1.81l-107.41-49.05-.06,45.12,107.48,49.08v1.81l-107.48-49.08.19,131.4,107.29,48.99v1.81l-111.81-51.06v-1.81Z"/>
  <path class="cls-3" d="m271.06,122.69l111.81,51.18v180.79l-111.81-50.99V122.69Z"/>
  <path class="cls-9" d="m275.98,303.8l106.9,48.81v2.54l-1.13.52-109.67-50.08,3.9-1.79Z"/>
  <path class="cls-8" d="m272.07,305.59l3.9-1.79-.19-131.4-3.9,1.79.19,131.4Z"/>
  <path class="cls-8" d="m271.89,172.39l3.9-1.79.06-45.12-3.9,1.79-.07,45.12Z"/>
  <path class="cls-9" d="m275.79,170.6l107.08,48.9v2.37l-1.32.61-109.67-50.08,3.9-1.79Z"/>
  <path class="cls-9" d="m271.06,121.47l111.81,51.06v3.58l-111.81-51.06v-3.58Z"/>
  <path class="cls-9" d="m381.87,348.95l6.95,3.18-3.9,1.79-3.05-1.39v-3.58Z"/>
  <path class="cls-8" d="m388.99,222.38l-2.28,1.05.19,131.4,2.09-.96v-131.49Z"/>
  <path class="cls-9" d="m381.87,215.83l6.77,3.09-3.9,1.79-2.86-1.31v-3.57Z"/>
  <path class="cls-8" d="m388.99,175.48l-2.21,1.02-.07,45.12,2.27-1.04v-45.09Z"/>
  <path class="cls-9" d="m388.99,172.12l-7.12-3.25v3.58l7.12,3.25v-3.58Z"/>
  <path class="cls-8" d="m388.99,355.77l-2.09-.95-.19-131.4,2.28,1.04v-1.81l-2.27-1.04.07-45.12,2.21,1.01v-1.81l-7.12-3.25v1.81l2.93,1.34-.06,45.12-2.86-1.31v1.81l2.86,1.3.19,131.4-3.05-1.39v1.81l7.12,3.25v-1.81Z"/>
  <path class="cls-8" d="m383.39,356.42l3.9-1.79-.19-131.4-3.9,1.79.19,131.4Z"/>
  <path class="cls-8" d="m383.21,223.22l3.9-1.79.07-45.12-3.9,1.79-.07,45.12Z"/>
  <path class="cls-9" d="m388.99,175.32l-7.12-3.25v3.58l7.12,3.25v-3.58Z"/>
  <path class="cls-8" d="m388.99,358.98l-5.6-2.55-.19-131.4,5.79,2.64v-1.81l-5.78-2.64.07-45.12,5.71,2.61v-1.81l-7.12-3.25v181.89l7.12,3.25v-1.81Z"/>
  <path class="cls-9" d="m381.87,348.96l6.95,3.17-3.9,1.79-3.05-1.39v-3.58Z"/>
  <path class="cls-8" d="m388.99,222.39l-2.28,1.05.19,131.4,2.09-.96v-131.49Z"/>
  <path class="cls-9" d="m381.87,215.84l6.77,3.09-3.9,1.79-2.86-1.31v-3.58Z"/>
  <path class="cls-8" d="m388.99,175.49l-2.21,1.02-.07,45.12,2.27-1.04v-45.09Z"/>
  <path class="cls-9" d="m388.99,172.13l-7.12-3.25v3.58l7.12,3.25v-3.58Z"/>
  <path class="cls-8" d="m388.99,355.79l-2.09-.95-.19-131.4,2.28,1.04v-1.81l-2.27-1.04.07-45.12,2.21,1.01v-1.81l-7.12-3.25v1.81l2.93,1.34-.06,45.12-2.86-1.31v1.81l2.86,1.3.19,131.4-3.05-1.39v1.81l7.12,3.25v-1.81Z"/>
  <path class="cls-4" d="m388.99,176.54l-7.12-3.26v180.98l7.12,3.24v-180.97Z"/>
  <path class="cls-8" d="m383.4,356.44l3.9-1.79-.19-131.4-3.9,1.79.19,131.4Z"/>
  <path class="cls-8" d="m383.21,223.24l3.9-1.79.06-45.12-3.9,1.79-.07,45.12Z"/>
  <path class="cls-9" d="m388.99,175.33l-7.12-3.25v3.58l7.12,3.25v-3.58Z"/>
  <path class="cls-17" d="m388.99,360.8v-1.81l-5.59-2.55-.19-131.4,5.79,2.64v-1.81l-5.78-2.64.07-45.12,5.71,2.61v-1.81l-6.12-2.79-111.81-51.06L55,26.4l.11,181.93,216.63,98.92,110.13,50.29,7.12,3.25ZM160.82,76.53l109.67,50.08-.07,45.12-109.67-50.08.07-45.12ZM56.98,29.11l101.86,46.51-.07,45.12-101.86-46.51.06-45.12Zm.12,178.33l-.19-131.4,101.86,46.51.19,131.4-101.86-46.51Zm103.84,47.42l-.19-131.4,109.67,50.08.19,131.4-109.67-50.08Zm111.01-127.58l109.67,50.08-.07,45.12-109.67-50.08.07-45.12Zm.12,178.33l-.19-131.4,109.67,50.08.19,131.4-109.67-50.08Z"/>
  <path class="cls-15" d="m182.42,243.18c0-.7,0-17.77-2.06-26.39-2.06-8.62-7.81-34.84-10.11-38.71-2.3-3.88-2.91-4.53-3.95-5.31-1.04-.78-8.18,14.64-7.53,15.17.65.53,6.12,27.36,6.12,27.36l7.89,27.89h9.64Z"/>
  <path class="cls-12" d="m194.62,257.22c.52.53,4,33.47,4,33.47l-19.26,12.93-12.6.14-2.96-35.87,18.82-11.08,11.98.41Z"/>
  <path class="cls-26" d="m184.3,260.17s.06-4.7-3.34-5.85l-.97,1.34s1.33,1.54,1.22,4.51c0,0,1.92.8,3.09,0Z"/>
  <path class="cls-14" d="m182.21,242.53c0,.29.73,4.22.93,6.11.21,1.89,1.53,5.53,1.06,6.55-.47,1.02-4.27,4.43-5.41,4.65-.72.13-1.46.13-2.18,0l-1.42-.22,1.32-1.52.82-1.6-1.01-3.37s.4,3.86-1.13,4.65c-1.53.8-2.18.45-1.95-.53.23-.98-.32-4.49-.05-6.38.27-1.89,1.51-3.56,1.13-5.17-.38-1.6-.57-3.2-.57-3.2l8.45.03Z"/>
  <path class="cls-26" d="m176.68,254.32s-4.49,2.98-3.16,10.26c0,0,2.63.9,3.16,0,0,0-1.26-5.99.88-7.78l-.88-2.48Z"/>
  <path class="cls-26" d="m163.81,267.89c.27.05.54.08.82.08l2.4.12,8.36.32h.07l.06-.04,4.91-2.83c3.94-2.26,7.48-4.33,10.04-5.83l3.01-1.79c.38-.21.74-.44,1.07-.7-.41.18-.8.39-1.17.63l-3.09,1.71c-2.6,1.46-6.18,3.49-10.11,5.76l-4.91,2.85.12-.03-8.36-.2-2.41-.03c-.27-.02-.54-.02-.81,0Z"/>
  <path class="cls-26" d="m175.91,268.33c-.11,0,.52,7.94,1.43,17.72.91,9.78,1.74,17.71,1.86,17.7.12,0-.52-7.94-1.43-17.73-.91-9.79-1.74-17.7-1.86-17.7Z"/>
  <path class="cls-26" d="m177.55,281.19c.29-.08.57-.19.82-.33.54-.23,1.3-.57,2.23-1.02,2.41-1.18,4.73-2.45,6.95-3.82,2.22-1.37,4.34-2.84,6.35-4.39.77-.63,1.38-1.1,1.78-1.45.23-.17.43-.36.6-.57-.26.14-.51.3-.72.48l-1.87,1.37c-1.58,1.15-3.81,2.7-6.41,4.3s-5.04,2.95-6.84,3.89l-2.15,1.11c-.26.12-.51.26-.74.43Z"/>
  <path class="cls-12" d="m168.55,233.95c.11-.03-24.41,13.8-24.41,13.8l-32.89-17.19,3.39-5.02s19.95,5.52,28.65,4.13c8.7-1.39,20.61-4.13,20.61-4.13l4.65,8.41Z"/>
  <path class="cls-26" d="m135.95,347.74v.75s16.57,5.24,16.71,7.66l-33.02-.38.61-8.41c2.43.92,5.08,1.43,7.79,1.5,2.71.07,5.4-.32,7.9-1.12Z"/>
  <path class="cls-12" d="m119.64,355.77l.15-2.02,31.58,1.1s1.46.5,1.28,1.3l-33-.38Z"/>
  <path class="cls-7" d="m136.05,348.56c0,.12-.82.17-1.64.56-.82.39-1.24.9-1.38.85-.15-.05.11-.76,1.09-1.22.98-.46,1.97-.31,1.93-.19Z"/>
  <path class="cls-7" d="m139.5,349.69c0,.13-.67.33-1.23.84-.56.51-.73,1.07-.88,1.06-.16,0-.25-.71.46-1.34.71-.63,1.65-.68,1.65-.57Z"/>
  <path class="cls-7" d="m141.41,352.89c-.15,0-.36-.63.07-1.25.43-.63,1.19-.93,1.25-.83.07.1-.41.46-.74,1.02-.34.55-.44,1.06-.57,1.07Z"/>
  <path class="cls-14" d="m168.43,233.64s5.84,15.73-4.08,35.79c-9.92,20.07-15.55,36.12-15.89,40.45-.34,4.33-1.64,6.97-6.84,20.66-3.82,9.99-6.29,17.32-6.29,17.32-1.71.71-3.61,1.12-5.55,1.23-1.94.1-3.89-.12-5.72-.64,0,0-.1-23.43,5.65-39.51,5.75-16.07,9.68-41.15,7.71-50.22-1.96-9.07,2.29-14.23,2.29-14.23l28.73-10.85Z"/>
  <path class="cls-14" d="m106.84,252.89c-3.82-14.12,6.47-25.14,6.47-25.14l30.6,19.1s6.47,57.15,2.65,64.59c-3.82,7.44-22.49,38.01-22.49,38.01l-10.95-2.9s2.62-22.25,7.1-30.68c2.5-4.68,7.37-7,5.1-12.87-2.27-5.87-15.36-38.56-18.47-50.12Z"/>
  <path class="cls-26" d="m112.8,344.56s8.18,6.35,12.67,2.85l.82,1.91,3.08,13.44c.11.43,0,.87-.29,1.24-.29.37-.76.64-1.3.77-.42.09-.86.09-1.28,0-.42-.09-.79-.27-1.09-.52-3.1-2.67-14.45-12.54-14.18-13.71l.45-3.22c.1-.67.94-2.25.94-2.4l.18-.37Z"/>
  <path class="cls-12" d="m127.36,364.83l-15.99-15.41-.09.7c-.06.29-.03.58.09.86.11.28.31.54.57.75,1.25,1.55,4.83,5.08,13.42,12.54.25.21.56.38.91.48.35.1.73.14,1.1.1v-.02Z"/>
  <path class="cls-7" d="m123.15,357.22c.6-.49,1.31-.88,2.1-1.15.84-.19,1.73-.25,2.6-.19,0-.04-.25-.19-.76-.28-.68-.11-1.38-.07-2.02.12-.65.18-1.22.5-1.64.92-.28.34-.34.58-.29.58Z"/>
  <path class="cls-7" d="m124.47,359.57c.67-.23,1.35-.42,2.05-.58.73-.05,1.46-.07,2.19-.06.07-.08-.96-.51-2.29-.3s-2.07.88-1.96.93Z"/>
  <path class="cls-7" d="m120.54,354.19c.99-.41,2.02-.76,3.09-1.05,1.8-.4,3.35-.23,3.37-.35-1.13-.31-2.38-.31-3.51,0-1.93.4-3.04,1.34-2.95,1.39Z"/>
  <path class="cls-16" d="m147.1,299.89c-.02.18-.02.35,0,.53,0,.38,0,.88.04,1.51.07,1.84,0,3.68-.22,5.51-.31,2.72-1.26,5.37-2.82,7.82-.86,1.4-1.85,2.83-2.82,4.35-.96,1.52-1.9,3.14-2.81,4.75-1.85,3.27-3.75,6.33-5.44,9.14-1.69,2.81-3.2,5.34-4.39,7.49-1.19,2.16-2.08,3.92-2.65,5.15-.29.63-.49,1.1-.63,1.42-.08.16-.15.33-.19.51.11-.15.2-.32.28-.48l.71-1.4c.62-1.22,1.56-2.97,2.78-5.1,1.23-2.14,2.75-4.66,4.48-7.46,1.73-2.8,3.63-5.86,5.48-9.14.92-1.64,1.82-3.22,2.79-4.73s1.94-2.95,2.79-4.35c1.56-2.49,2.5-5.18,2.77-7.94.18-1.84.21-3.7.07-5.54-.06-.63-.1-1.13-.13-1.5-.02-.18-.05-.35-.11-.52Z"/>
  <path class="cls-26" d="m163.64,217.18s13.35,22.89,9,38.08c-4.35,15.19-19.64,47.34-19.64,47.34l-30.04,1.16s-13.17-32.96-15.87-42.53c-3.58-12.64-4.47-24.24,6.08-40.69l2.28-5.02,48.18,1.66Z"/>
  <path class="cls-12" d="m148.09,302.43c0-.06,0-.12,0-.18v-.5c0-.48-.05-1.13-.09-1.95-.1-1.72-.24-4.16-.43-7.15-.4-6.07-.96-14.42-1.57-23.6-.59-8.15-1.14-15.68-1.55-21.37v.09l6.37-7.3,1.72-2.01.44-.53c.05-.06.1-.12.13-.19,0,0-.07.05-.18.16l-.48.51-1.8,1.96-6.51,7.23-.04.04v.05c.38,5.72.88,13.21,1.43,21.38.67,9.2,1.28,17.56,1.72,23.6.24,3,.44,5.43.58,7.15.07.82.13,1.47.18,1.94,0,.21,0,.37.06.51,0,.06,0,.11.02.17Z"/>
  <path class="cls-15" d="m108.41,169.99c-2.03,1.23-3.57,2.87-4.46,4.73-3.09,5.91-10.64,25.93-10.81,27.26-.25,1.96-1.93,6.7-.91,9.23,1.02,2.53,10.45,4.53,10.45,4.53l4.57-8.89-1.64-1.4,9.27-18.02v-9.74l-6.47-7.69Z"/>
  <path class="cls-26" d="m95.48,203.95s.63-.13,1.64-.25c1.33-.16,2.68-.12,3.99.11,1.31.23,2.54.66,3.64,1.25.82.46,1.28.83,1.34.79-.29-.38-.68-.71-1.15-.97-1.09-.68-2.36-1.15-3.73-1.4s-2.78-.25-4.15-.01c-.57.07-1.1.24-1.58.48Z"/>
  <path class="cls-19" d="m150.62,165.96c.69.13,16.12,4.67,16.98,7.69.86,3.02-5.64,13.33-5.64,13.33,0,0,3.67,6.4,0,10.94,0,0,4.09,17.79,4.71,22.57.09.47.09.94,0,1.41-1.64,1.09-54.91,1.01-55.43.23-.52-.78,4.35-25.02,3.66-27.12-.69-2.1,0-7.6,0-7.6,0,0-7.19-17.04-6.5-17.43.69-.4,19.8-5.24,19.8-5.24l3.01-.45,15.31,1.04,4.09.63Z"/>
  <path class="cls-7" d="m166.09,217.08s-51.62-.13-51.81.17c-.19.3-1.2,4.28-1.2,4.28l53.63-1.14-.61-3.3Z"/>
  <path class="cls-7" d="m164.78,210.55s-49.72.11-49.93.41c-.21.3-.76,3.18-.76,3.18l51.5.27-.81-3.87Z"/>
  <path class="cls-15" d="m153.13,166.71l-2.51-.74-2.85-2.52-17.88-1.35-2.29,2.31-4.34,1.42,16.28,18.43,13.59-17.54Z"/>
  <path class="cls-7" d="m136.12,176.43l-42.14,48.5s-.32,8.05,10.03,6.27l46.11-47.84-14-6.93Z"/>
  <path class="cls-26" d="m136.12,176.44l.25.13.7.36,2.73,1.38,10.26,5.12v-.13c-9.94,10.29-26.54,27.48-45.34,46.93l-.82.87.12-.06c-.65.07-1.29.17-1.92.22h-1.48l-.47-.05c-1.26-.09-2.44-.48-3.39-1.12-.91-.65-1.59-1.47-1.96-2.38-.39-.9-.6-1.83-.61-2.78v.08l29.92-34.59,8.82-10.24c1.03-1.2,1.82-2.13,2.37-2.77l.61-.72.2-.26s-.07.07-.21.23l-.62.7-2.39,2.72-8.9,10.16-30.18,34.61-.04.04v.05c0,.98.21,1.96.62,2.88.4.96,1.12,1.82,2.09,2.51,1,.69,2.27,1.11,3.61,1.2l.5.06h1.51c.66-.05,1.31-.15,1.97-.23h.07l.05-.06.82-.87,45.2-47.03.08-.08-.12-.05-10.39-5.07-2.74-1.33-.7-.33-.21-.11Z"/>
  <path class="cls-26" d="m164.61,210.01c0-.31-.05-.62-.12-.93-.13-.63-.29-1.49-.5-2.51-.46-2.21-1.1-5.21-1.82-8.64v.1c.71-1.05,1.2-2.18,1.46-3.34.5-2.63-.02-5.32-1.48-7.73v.12c1.24-2.14,2.28-3.93,3.04-5.24.34-.63.61-1.09.82-1.47.11-.17.2-.35.26-.54-.15.15-.27.32-.36.5l-.93,1.44c-.82,1.3-1.88,3.08-3.18,5.19v.06l.04.07c1.39,2.36,1.87,4.97,1.38,7.52-.25,1.13-.71,2.23-1.39,3.25v.08c.78,3.42,1.46,6.42,1.96,8.62l.61,2.51c.04.31.1.63.2.93Z"/>
  <path class="cls-26" d="m115.73,189.3c-.05-.49-.17-.98-.37-1.45-.29-.88-.77-2.1-1.4-3.4-.63-1.31-1.29-2.47-1.82-3.29-.24-.46-.56-.89-.95-1.29.17.48.4.94.68,1.39.45.84,1.06,2.01,1.69,3.3.62,1.3,1.15,2.51,1.51,3.35.15.48.38.94.66,1.39Z"/>
  <path class="cls-15" d="m140.26,183.96c-3.86-1.9-5.55-5.18-3.75-7.31,1.79-2.13,6.38-2.32,10.24-.42,3.87,1.9,5.55,5.18,3.75,7.31-1.79,2.14-6.38,2.32-10.24.42Z"/>
  <path class="cls-26" d="m136.12,176.43c.38-.34.81-.65,1.29-.92,1.38-.63,3.02-.85,4.6-.63,2.35.29,4.51,1.15,6.18,2.46.98.76,1.72,1.68,2.16,2.69.28.53.39,1.09.32,1.66-.07.56-.31,1.11-.72,1.58-.4.48-.95.87-1.59,1.15-.64.28-1.37.43-2.1.46-1.39.11-2.79-.02-4.09-.4-2.24-.63-4.15-1.78-5.48-3.3-.91-1.01-1.32-2.25-1.14-3.47.12-.43.31-.85.56-1.25-.1.09-.19.19-.26.29-.21.3-.36.62-.46.96-.25,1.26.12,2.55,1.05,3.61,1.33,1.59,3.29,2.8,5.6,3.46,1.36.39,2.82.54,4.27.43.8-.03,1.58-.2,2.27-.51.69-.31,1.28-.73,1.71-1.25.43-.51.7-1.1.77-1.71.07-.61-.04-1.23-.34-1.79-.46-1.06-1.24-2.01-2.28-2.8-1.73-1.34-3.99-2.21-6.43-2.48-1.64-.21-3.33.06-4.72.76-.36.2-.68.44-.95.71-.09.09-.16.18-.23.28Z"/>
  <path class="cls-26" d="m96.87,230.4c.1.05,9.82-10.35,21.67-23.2,11.85-12.85,21.43-23.39,21.36-23.44-.06-.05-9.82,10.35-21.67,23.2-11.85,12.85-21.46,23.38-21.36,23.44Z"/>
  <path class="cls-26" d="m142.74,222.89c.12,0-.04-6.9-.36-15.43-.32-8.54-.67-15.43-.82-15.42-.15,0,.04,6.9.36,15.43.32,8.54.7,15.42.82,15.42Z"/>
  <path class="cls-26" d="m139.86,170.04c.24.45.55.87.93,1.25.89,1.01,1.91,1.94,3.04,2.79l.17.12.14-.15c.5-.53,1.03-1.12,1.57-1.73,1.45-1.64,2.68-3.14,3.54-4.28.5-.6.93-1.23,1.28-1.88-.56.55-1.08,1.13-1.54,1.73-.92,1.08-2.18,2.58-3.62,4.21-.54.63-1.06,1.19-1.56,1.73h.31c-1.13-.83-2.18-1.72-3.13-2.68-.34-.4-.72-.77-1.14-1.13Z"/>
  <path class="cls-26" d="m127.45,165.21c.51.63,1.07,1.23,1.69,1.81,1.09,1.09,2.61,2.58,4.31,4.21l2.59,2.48.15.14.15-.14c1.09-1,2-1.84,2.63-2.45.36-.3.68-.63.95-.98-.41.26-.79.55-1.12.87-.69.57-1.64,1.39-2.75,2.37h.29l-2.57-2.51c-1.7-1.64-3.27-3.13-4.4-4.16-.59-.59-1.23-1.13-1.92-1.64Z"/>
  <path class="cls-14" d="m129.03,207.79c.24-.14.42-.34.51-.56.09-.22.09-.46,0-.68s-.26-.42-.5-.56c-.24-.15-.53-.23-.83-.25-.38-.01-.77,0-1.15.04-2.23.21-7.32,1.25-8.9,1.05-1.58-.2-2.93-.59-3.7-1.58-.77-.99,2.3-4.51,1.96-6.22-.34-1.71-1.71-1.26-2.08-.85-.37.4-2.39,3.13-3.27,4.14-.88,1.01-4.97,4.53-6.43,4.86-1.46.33-2.37.5-2.37.5-.79.21-1.51.57-2.08,1.04-.57.47-.98,1.04-1.19,1.67-.62,2.08,1.73,4.43,3.82,4.39,2.1-.04,17.51.53,18.34.1.83-.43,2.57-1.25,2.85-2.51,0,0,3.63-1.21,3.7-2.12,0,0-.08-1.69-.05-1.88.49-.14.96-.34,1.37-.59Z"/>
  <path class="cls-16" d="m119.25,209.65c1.51,0,3-.16,4.45-.46,1.48-.19,2.92-.55,4.28-1.04-1.48.18-2.94.42-4.38.73-1.47.2-2.92.46-4.36.78Z"/>
  <path class="cls-16" d="m116.99,212.21c.52.09,1.06.11,1.6.06,2.58-.08,5.13-.52,7.5-1.3.51-.13.99-.33,1.42-.58-.06-.09-2.27.68-5.18,1.17-2.9.5-5.34.55-5.34.65Z"/>
  <path class="cls-16" d="m116.67,213.55c1.29.08,2.59,0,3.86-.23,1.28-.13,2.53-.41,3.7-.84-1.27.12-2.54.29-3.78.51-1.27.13-2.53.31-3.77.55Z"/>
  <path class="cls-26" d="m115.54,149.3c1.92-1.46,5.11-2.15,7.37-1.04l7.64,5.83c0,1.11-.35,2.21-1.04,3.19-.68.98-1.67,1.82-2.88,2.44-1.21.62-2.6,1-4.04,1.11-1.45.11-2.91-.06-4.25-.49-1.34-.43-2.53-1.1-3.45-1.96-.92-.86-1.55-1.88-1.83-2.98-.28-1.09-.2-2.22.22-3.29.43-1.07,1.19-2.03,2.22-2.82h.03Z"/>
  <path class="cls-19" d="m118.17,138.86c.56-.82,1.47-1.46,2.59-1.81,11.11-3.35,23.95-3.13,35.55-.76,3.02.63,6.25,1.53,7.69,3.48v.13c.62,1.25-.29,2.92-1.7,3.84-1.52.88-3.28,1.49-5.15,1.77-8.84,1.76-18.27,1.35-27.36.4-2.13-.18-4.24-.52-6.29-1.02-2.01-.48-3.8-1.38-5.19-2.6-.5-.49-.78-1.09-.81-1.71-.03-.62.21-1.23.66-1.75Z"/>
  <g class="cls-5">
    <path d="m118.17,138.86c.56-.82,1.47-1.46,2.59-1.81,11.11-3.35,23.95-3.13,35.55-.76,3.02.63,6.25,1.53,7.69,3.48v.13c.62,1.25-.29,2.92-1.7,3.84-1.52.88-3.28,1.49-5.15,1.77-8.84,1.76-18.27,1.35-27.36.4-2.13-.18-4.24-.52-6.29-1.02-2.01-.48-3.8-1.38-5.19-2.6-.5-.49-.78-1.09-.81-1.71-.03-.62.21-1.23.66-1.75Z"/>
  </g>
  <path class="cls-26" d="m124.35,133.1c1.99-1.95,4.52-3.54,7.41-4.65,2.89-1.1,6.07-1.7,9.31-1.73,3.8-.05,5.37.56,8.1,1.12,2.74.5,5.16,1.73,6.83,3.46,1.94,2.11,3.57,4.47,3.93,7.03.48,2.62.65,5.28.5,7.93-.16,2.66-1.27,5.23-3.22,7.44l-8.77,1.17c-4.84.12-9.75.24-14.46-.63-4.71-.87-9.31-2.79-11.83-5.96-3.52-4.38-2.05-11.17,2.21-15.19Z"/>
  <path class="cls-14" d="m132.16,133.05l11.69-3.56,3.05.27c6.88,0,11.61,5.83,11.65,10.09.05,4.74-.13,10.52-1.11,14.01-1.98,7.02-9.82,7.61-9.82,7.61.1.85.15,1.71.13,2.56l-7.76,6.27-10.12-7.68-.82-27.19c.04-.62.38-1.21.95-1.65.57-.44,1.34-.7,2.15-.74Z"/>
  <path class="cls-16" d="m143.69,152.22c.06-.25.19-.49.4-.69.21-.2.47-.36.78-.46.31-.1.65-.14.98-.12s.65.11.93.25c.38.22.67.52.85.85.18.34.24.71.17,1.07-.2.21-.46.39-.76.53-.3.13-.63.22-.97.24-.32.03-.65,0-.96-.07-.31-.07-.59-.2-.84-.37-.21-.16-.38-.35-.48-.56-.1-.21-.14-.44-.11-.67Z"/>
  <path class="cls-26" d="m154.27,145.32c-.01.24-.15.46-.37.62-.23.16-.53.25-.84.24-.15,0-.3-.02-.44-.06-.14-.04-.27-.11-.38-.19-.11-.08-.19-.18-.25-.28-.06-.11-.09-.22-.09-.34.01-.24.14-.46.37-.62.23-.16.53-.25.84-.25.15,0,.3.02.44.06.14.04.27.11.38.19.11.08.2.18.26.29.06.11.09.22.09.34Z"/>
  <path class="cls-26" d="m156.46,142.22c-.16.11-1.01-.43-2.29-.49-1.28-.06-2.24.4-2.37.28s.1-.26.52-.48c.57-.27,1.24-.4,1.91-.36.66.03,1.3.21,1.82.53.38.25.49.47.42.52Z"/>
  <path class="cls-26" d="m148.26,149.88c.68-.13,1.39-.2,2.1-.2.33,0,.64-.05.7-.22.05-.26,0-.52-.16-.75-.26-.63-.53-1.25-.82-1.94-1.14-2.76-1.95-5.02-1.81-5.06.14-.04,1.2,2.18,2.34,4.94.27.68.53,1.33.82,1.95.18.31.21.66.1.99-.05.09-.13.16-.23.22-.1.06-.21.1-.33.12-.18.03-.37.04-.56.04-.72.04-1.44.01-2.14-.09Z"/>
  <path class="cls-16" d="m147.66,161.46c-4.35-.13-8.58-1.17-12.2-3.03,0,0,2.95,5.02,12.28,4.77l-.07-1.74Z"/>
  <path class="cls-26" d="m144.46,150.4c.2,0,.13,1.06,1.27,1.88,1.14.82,2.61.75,2.61.9s-.34.19-.96.18c-.81-.03-1.59-.27-2.19-.69-.58-.4-.93-.96-.97-1.56-.02-.46.15-.72.25-.71Z"/>
  <path class="cls-26" d="m156.03,138.79c-.23.23-1.2,0-2.34.06s-2.11.21-2.35,0c-.1-.11.04-.34.45-.56.57-.27,1.22-.42,1.88-.43.67,0,1.32.13,1.9.39.42.2.56.43.46.54Z"/>
  <path class="cls-26" d="m140.02,144.91c0,.24.1.47.31.64.21.17.5.28.81.29.15.01.3,0,.45-.04.15-.04.28-.09.4-.17.11-.07.21-.17.28-.27.07-.1.11-.22.12-.33,0-.24-.1-.47-.31-.64-.21-.18-.5-.28-.81-.29-.15-.01-.3,0-.45.03-.14.03-.28.09-.4.16-.12.08-.21.17-.28.27-.07.1-.11.22-.12.33Z"/>
  <path class="cls-26" d="m139.2,141.85c.14.12,1.06-.38,2.33-.36,1.28.03,2.2.52,2.34.4.14-.12-.07-.27-.47-.5-.55-.3-1.2-.47-1.87-.47-.67-.01-1.32.14-1.87.43-.39.23-.57.44-.46.5Z"/>
  <path class="cls-26" d="m139.96,138.71c.24.23,1.24,0,2.45,0s2.19.18,2.46-.05c.11-.11-.05-.34-.48-.55-.62-.27-1.32-.4-2.03-.36-.69,0-1.37.14-1.95.42-.41.21-.56.44-.45.55Z"/>
  <path class="cls-14" d="m130.65,147.36c.04-.53-.67-1.81-1.34-1.91-1.8-.3-5.08-.32-5.37,3.21-.39,4.83,6.02,4.13,6.04,3.99.02-.14.55-3.47.67-5.29Z"/>
  <path class="cls-16" d="m128.39,150.79s-.11.06-.3.11c-.26.08-.56.08-.82,0-.65-.22-1.15-1.05-1.1-1.93.02-.41.15-.82.4-1.19.07-.15.18-.29.34-.4.15-.11.34-.19.54-.23.13-.02.26,0,.38.04.12.05.2.12.25.22.07.14,0,.23.06.24.06.01.14-.08.11-.28-.02-.12-.1-.23-.22-.31-.08-.06-.18-.1-.28-.12-.1-.03-.21-.04-.32-.03-.26.03-.51.11-.72.23-.21.12-.38.28-.49.47-.3.41-.47.86-.48,1.33-.04.97.54,1.88,1.43,2.16.17.04.34.06.52.05.17-.01.35-.05.5-.12.21-.13.28-.23.22-.24Z"/>
  <path class="cls-26" d="m129.05,145.45l1.64,1.25c6.92-5.07,20.46-17.76,19.64-17.01-3.15-.9-6.55-1.18-9.88-.82-5.14.67-14.89,2.64-14.73,7.29.16,4.65,3.33,9.29,3.33,9.29Z"/>
  <path class="cls-12" d="m120.52,144.39c.01-.1.04-.19.09-.28.11-.26.25-.52.42-.76.64-.89,1.52-1.66,2.58-2.27,1.57-.88,3.32-1.54,5.19-1.95,2.26-.48,4.49-1.05,6.68-1.71,2.16-.7,4.21-1.6,6.09-2.67,1.55-.88,2.98-1.86,4.3-2.94.88-.73,1.7-1.5,2.46-2.31l.62-.66c.06-.08.14-.16.23-.23-.05.09-.11.17-.18.25-.12.16-.31.4-.57.7-.75.83-1.57,1.62-2.46,2.37-1.3,1.11-2.74,2.12-4.29,3.01-1.9,1.09-3.96,2-6.15,2.71-2.19.65-4.43,1.22-6.7,1.69-1.84.4-3.58,1.04-5.14,1.88-1.06.58-1.95,1.32-2.6,2.18-.4.62-.54,1-.57.99Z"/>
  <path class="cls-12" d="m122.31,145.15c-.02-.36.06-.72.24-1.05.46-.92,1.26-1.71,2.32-2.27,1.56-.79,3.31-1.33,5.15-1.58,2.2-.34,4.35-.88,6.39-1.59,2.05-.73,3.98-1.66,5.73-2.76,1.43-.9,2.74-1.91,3.91-3,.79-.75,1.51-1.53,2.18-2.35l.52-.68c.06-.08.12-.16.2-.23-.03.09-.08.17-.14.25-.13.18-.29.41-.48.7-.63.84-1.33,1.64-2.11,2.4-1.16,1.13-2.47,2.16-3.9,3.07-1.74,1.12-3.67,2.07-5.73,2.8-2.06.72-4.23,1.26-6.46,1.59-1.81.24-3.53.75-5.08,1.5-1.03.54-1.84,1.29-2.33,2.17-.17.33-.31.67-.4,1.02Z"/>
  <path class="cls-12" d="m160.08,139.28c-3.54-1.45-7.45-2.26-11.46-2.38-17.94-.32-28.27,3.73-28.27,3.73.17-1.16.45-2.3.82-3.43,0,0,25.37-2.51,25.54-2.51s8.01,1.08,8.18,1.13c.18.05,4.83.63,4.83.63l.35,2.84Z"/>
  <path class="cls-19" d="m164.15,140.01s-2.3-3.97-22.64-3.95c-19.78,0-23.99,4.31-23.99,4.31.06-.88.43-1.73,1.07-2.46.64-.73,1.53-1.31,2.57-1.68.31-3.91,2.39-7.61,5.89-10.46,2.08-1.63,5.77-3,6.55-3.42l.15-.9s1.42-1.1,8.06-1.06c6.86.04,8.18,1.6,8.18,1.6l.12.84c3.2,1.3,5.9,3.23,7.81,5.59,1.91,2.36,2.98,5.07,3.08,7.85,0,0,3.64,1.82,3.14,3.75Z"/>
  <g class="cls-5">
    <path d="m149.19,125.52c.07-1.21.35-2.41.82-3.57l.12.84c-.6,2.27-.94,4.58-1.03,6.9-.03-1.41-.03-2.81.09-4.17Z"/>
  </g>
  <g class="cls-5">
    <path d="m133.75,121.4c1.06.95,2.9,2.6,3.18,3.95.25,1.37.34,2.76.29,4.15-.97-4.57-1.87-5.24-3.63-7.15l.16-.94Z"/>
  </g>
  <path class="cls-26" d="m121.16,136.23c.14,0,.28-.03.41-.06l1.15-.24c.49-.11,1.1-.24,1.81-.37.71-.13,1.51-.31,2.46-.43,4.69-.76,9.46-1.19,14.25-1.29,4.77-.17,9.55.12,14.23.86.88.18,1.69.34,2.38.52.7.18,1.27.36,1.74.51l1.06.41c.12.05.25.09.38.12,0,0-.12-.07-.34-.18l-1.02-.47c-.46-.18-1.06-.35-1.74-.58-.68-.23-1.5-.38-2.38-.56-4.71-.82-9.54-1.15-14.36-.97-4.82.1-9.61.57-14.31,1.39-.9.14-1.7.34-2.41.48-.61.12-1.21.26-1.8.43l-1.12.3c-.13.04-.26.08-.38.13Z"/>
  <path class="cls-26" d="m133.75,121.44c.27.38.6.72.97,1.04.88.75,1.55,1.63,1.98,2.58.36.97.53,1.98.51,3-.04.42-.04.84,0,1.25.2-.4.3-.83.3-1.25.11-1.04-.02-2.09-.4-3.1-.44-1-1.18-1.9-2.16-2.63-.35-.34-.75-.63-1.2-.88Z"/>
  <path class="cls-26" d="m148.99,129.42c.12,0,.15-1.69.43-3.76.29-2.07.69-3.76.57-3.76-.56,1.2-.9,2.45-1,3.72-.24,1.26-.25,2.54,0,3.81Z"/>
  <g class="cls-5">
    <path class="cls-7" d="m150.42,124.49c-.03-.21.03-.41.18-.58.1-.07.21-.12.34-.15.13-.03.26-.03.39,0,.26.06.5.15.71.28,2.33,1.23,4.27,2.84,5.69,4.71,1.42,1.87,2.29,3.96,2.54,6.12,0,.05-.01.1-.04.14-.03.04-.07.08-.13.1-.05.02-.12.04-.18.04-.06,0-.12-.01-.18-.04-2.16-.92-4.49-1.58-6.92-1.96-.82-.13-1.95-.11-2.28-.71-.16-.37-.23-.75-.2-1.14l.05-6.79Z"/>
  </g>
  <path class="cls-1" d="m349.32,217.23c.34-.15.81-.09,1.29.19.08.05.17.1.25.17l9.13,6.74-2.46,1.12-9.13-6.74c-.08-.06-.17-.12-.25-.17-.48-.28-.95-.34-1.29-.18l2.46-1.12Z"/>
  <path class="cls-18" d="m357.87,230.99l.89-2.99c.22-.76-.33-1.91-1.23-2.57l2.46-1.12c.89.66,1.44,1.81,1.23,2.57l-.89,2.99c-.08.26-.23.44-.44.54l-2.46,1.12c.21-.1.36-.27.44-.54Z"/>
  <path class="cls-10" d="m345.54,221.89l.86-3c.2-.68.95-.81,1.74-.36.08.05.17.1.25.17l9.13,6.74c.89.66,1.44,1.81,1.23,2.57l-.89,2.99c-.19.68-.93.8-1.72.34-.09-.05-.18-.11-.27-.17l-9.13-6.74c-.87-.65-1.42-1.78-1.21-2.53Z"/>
  <path class="cls-20" d="m289.2,348.44c2.07-1.62,1.93-6.74-3.52-6.8-3.97-.04-10.16,6.35-14.87,8.85-.16,1.8-.25,3.45,1.3,4.73,1.63,1.34,3.65,1.01,5.9.6,3.89-.72,8.77-5.49,11.19-7.38Z"/>
  <path d="m289.2,346.5c1.42-1.09,2.35-4.85-4.41-5.04-3.13-.09-6.23,1.9-8.55,3.38-.93.59-1.65,1.3-2.74,1.66-.94.31-1.86.57-2.3,1.35-.44.79-.55,2.1-.44,2.94.12.94.52,1.82,1.34,2.49,1.63,1.34,3.65,1.01,5.9.6,3.9-.72,8.75-5.51,11.19-7.38Z"/>
  <path class="cls-20" d="m329.35,360.8c1.69-1.04,3.78-5.32-3.05-6.21-4.25-.56-15.81,2.04-21.25,4.29-.43,1.93-.76,3.7.73,5.22,1.57,1.6,4.46,1.73,6.95,1.49,4.3-.4,13.73-3.01,16.62-4.79Z"/>
  <path d="m329.57,359.03c1.65-1.02,2.48-4.73-2.43-5.38-2.28-.3-7.01-.23-11.63.87-.51.12-1.39.07-1.89.19-2.7.68-5.97,1.14-7.68,2.01-.57.29-.93.79-1.04,1.34-.33,1.63-.43,3.14.86,4.46,1.54,1.57,4.38,1.69,6.82,1.47,4.22-.4,14.14-3.2,16.99-4.96Z"/>
  <path class="cls-22" d="m331.95,203.7c-1.17.77-1.54,1.8-1.28,3.05.23,1.06,1.17-.46,1.17-.46,0,0,.12-1.76.11-2.59Z"/>
  <path class="cls-24" d="m326.95,206.92l-1.22,7.04c-.16.92-.51,1.89-1.03,2.85-.73,1.34-1.12,2.71-1.13,3.95v5.31c0,.27.12.46.31.55l1.61.77c-.19-.09-.3-.28-.3-.54v-5.31c0-1.24.4-2.61,1.13-3.95.53-.97.87-1.93,1.03-2.85l1.22-7.04-1.61-.77Z"/>
  <path class="cls-25" d="m334.09,217.06c-.02-1.05-.32-1.97-.89-2.62l-.22-.26c-.34-.41-.59-.88-.74-1.45l-1.53-6.07-2.15,1.02-1.22,7.05c-.16.92-.51,1.88-1.03,2.85-.73,1.34-1.12,2.71-1.13,3.95v5.31c0,.54.48.76,1.05.49l6.82-3.24c.57-.27,1.05-.94,1.05-1.49v-5.53Z"/>
  <path class="cls-21" d="m328.26,208.1l-1.45-.69c0-.05.06-.99.14-1.95l1.45.69c-.08.95-.14,1.9-.14,1.95Z"/>
  <path d="m332.39,201.64l-1.45-.69-.18-.04c-1.05.82-3.86,3.09-4.87,4.45-.08.12-.08.24,0,.28l1.45.69,5.06-4.69Z"/>
  <path class="cls-13" d="m332.4,203.01v-1.37s-.19-.04-.19-.04c-1.05.82-3.86,3.09-4.87,4.45-.11.15-.08.31.07.29.38-.05.83-.13.98-.18-.08.95-.13,1.9-.14,1.95l2.74-1.29s-.08-.94-.16-1.83c.1-.12.79-.85,1.33-1.46.14-.15.24-.36.24-.52Z"/>
  <path class="cls-22" d="m322.96,210.58c.31-.94.69-1.88,1.27-2.74.3-.44,1.66-2.19,1.66-2.19,0,0,1.09.51,1.09.51-.15.03-.09,1.01-.02,1.13.15.26.29.26.59.37.64.22,1.51.58,2.21.42.53-.12,1.29-.81,1.9-.58,1.51.56-1.66,2.95-2.21,3.27-.54.32-1.76,1.7-2.18,2.09-.95.9-.55,1.14-1.99,1.67-.68.25-1.5.22-2.12-.12-.88-.49-.45-2.25-.39-2.96.02-.31.08-.6.17-.86Z"/>
  <path class="cls-10" d="m276.64,215.96c.32-1.92,1.89-5.05,5.63-5.49,2.32-.27,5.2,1.25,6.93,1.99,5.11,2.27,11.1,4.11,18.02,8.39,1.12.72,13.61-11.55,15.42-12.81,3.31-.82,6.83,3.96,4.83,6.55,0,0-14.98,19.19-18.49,19.4-3.08.19-34.29-6.24-32.34-18.04Z"/>
  <path class="cls-22" d="m313.62,358.22c0,2.64-6.68,2.19-8.24.32-.15-.18-.18-.41-.17-.62.69-15.97-2.73-23.08-2.79-32.75-.02-2.79-.12-6.36-.12-6.36-.51-4.2-1.12-8.03-1.61-11.3-.47-3.16-.27-7.12,3.84-9.32,2.58-1.38,4.46,0,5.78,1.91,1.4,2.02,5.97,1.1,7.4,3.04.31.42-.61,12.26-.68,15.03-.05,2.13-.17,3.96-.45,5.48-.73,3.97-2.97,34.57-2.97,34.57Z"/>
  <path class="cls-22" d="m278.8,349.14c-1.05,2.02-7.59,1.28-7.59-.59,4.6-17,3.52-20.19,4.35-27.89.34-3.14,1.39-5.74,2.06-7.15.43-.9.63-1.87.63-2.83,0-4.08-.46-4.64-.34-6.88.18-3.18,2.66-9.83,7.23-11.3,2.87-.92,4.37.75,5.19,2.83,1.03,2.6,1.47.41,2.53,2.99,1.11,2.71,2.21,3.19,1.52,5.99-.16.67-1.76,6.9-2.86,10.83-.84,3.54-1.76,5.61-2.25,7.14-2.89,9.05-10.47,26.87-10.47,26.87Z"/>
  <path class="cls-22" d="m346.39,229.67c.14-.7.77-1.27.8-2.02.03-.93-.66-2.08-.97-2.96-.27-.75-.48-1.87-.2-2.64.15-.41.32-.65.87-.58,1.21.15.89,1.44,1.44,2.05,1.26,1.4,1.76-1.43,1.87-2,.2-.97,1.9-1.47,3.33-1.81.58-.14,4.36,1.26,4.76,3.52.11.6-2.32,1.98-2.32,1.98l-.63,3.78c-1.28,1.94-2.59,2.67-4.53,4.12-.39.29-.8.58-1.29.75-.68.23-1.51.18-2.11-.18-.72-.43-.74-2.02-.85-2.66-.08-.43-.26-.94-.17-1.36Z"/>
  <path class="cls-18" d="m283.79,243.21c.4,13.07-1.39,20.97-1.74,27.75-.9,5.89,33.24,10.44,34.05,4.12,0,0,.77-5.1.7-7.13-.22-7.06-2.38-14.48-1.82-21.05.42-4.9,2.99-14.11,2.99-14.11.19-3.92-.25-7.98-2.14-11.62-1.88-3.63-6.11-5.22-10.38-6.72-3.92-1.38-8.04-2.38-12.18-3.22-3.45-.69-9.31-2.13-12.52-.11-3.38,2.13-2.42,7.66-2.1,10.65.41,3.92,1.14,7.81,2.18,11.64.81,2.97,2.56,6.12,2.91,9.17.03.21.05.42.05.63Z"/>
  <path class="cls-20" d="m283.11,259.45c-6.36,10.8-6.57,39.09-6.57,46.01,1.11,9.68,43.85,11.36,43.85,4.51.21-3.04,3.47-27.58-3.36-46.43-10.91,6.6-32.97,1.98-33.92-4.08Z"/>
  <path class="cls-22" d="m293.03,205.21c.99,0,8.17.65,10.7,1.04,0,.65-.84,5.26-.7,6.32.21,1.7,3.16,1.84,2.62,2.07-4.46,1.9-16.45.18-15.8-2.85.18-.81,1.68-.44,2.28-1.07.52-.55,1.31-5.51.9-5.52Z"/>
  <path class="cls-22" d="m316.3,193.03c-2.99.83-5.97,1.75-8.99,2.49-2.08.51-4.32.6-6.38,1.18-3.84,1.1-5.37,5.77-3.9,8.62.47.91,1.04,1.59,1.79,2.37,1.27,1.34,4.02,3.2,6.23,2.73,3.39-.73,5.66-3.84,7.08-6.24,2.06-3.48,3.84-7.28,4.17-11.16Z"/>
  <path d="m286,213.68c-1.02-.09-2-.27-2.93-.61-1.92,5.12-.97,13.14-.16,16.28,4.39,17.09,1.85,19.84,1.76,27.78l2.24,1.07c1.25-12.47,1.16-19.67-2.05-33.89-.6-2.65-.56-7.43,1.15-10.63Z"/>
  <path class="cls-23" d="m290.86,205.96c.8,2.13,4.18,2.36,5.28,2.44,4.36.32,6.2.01,9.58-1.74,2.21-1.15,9.8-6.8,10.7-8.37,1.74-3.06,1.32-5.62.64-6.86-1.82-3.33-2.21-6.16-9.47-7.83-4.29-.99-8.53.58-8.53.58-4.92-1.15-8.15,2.68-9.04,5.73-1.02,3.51-.54,7.14-.25,10.7.13,1.63.48,3.71,1.09,5.36Z"/>
  <path d="m318.36,236.31c-.4-1.19-1.96-2.03-2.89-.78-1.74,2.33-1.62,18.73-1.46,21.43.65,10.89,1.51,9.02,3.43,26.93.4,3.71.69,7.45.69,11.18,0,0,4.11-.76,4.37-1.34.35-.79-.37-6.93-1.16-12.62-.7-5.05-1.85-10.05-3.16-15.02-5.26-19.88.18-29.77.18-29.77Z"/>
  <path class="cls-10" d="m308.92,220.32c1.51-1.72,4.93-1.52,6.88-.14,1.95,1.39,14.06,13.82,14.06,13.82,0,0,17.86-6.49,17.94-6.5,2.54.36,3.54,4.37,2.58,6.03,0,0-21.99,9.82-24.68,9.01-4.68-1.4-23.41-14.66-16.79-22.22Z"/>
  <path class="cls-10" d="m289.89,202.62c-.45.42-.75,1.08-.8,2.01-.1,2.18,1.52,5.23,4.74,3.98,1.46-.57,1.19-2.75.84-3.85-.79-2.48-3.44-3.4-4.78-2.13Z"/>
  <path class="cls-23" d="m290.15,203.72c-1.47.14-2.68,1.21-3.49,2.1-1.95,2.11-3.44,4.76-4.35,7.31-1.69,4.74-1.39,9.89.52,14.63,3.79-14.36,9.72-14.27,10.54-19.98.28-1.94-.92-4.28-3.21-4.06Z"/>
  <path d="m283.26,257.98c3.31,3.46,12.64,5.19,15.41,5.47,5.89.59,16.22-.68,18.07-1.83.2-1.27-1.01-2.97-1.01-2.97-3.22,1.23-8.12,3.12-17.06,2.58-2.01-.12-9.83-1.79-15.08-5.32-.72-.48-.94,1.43-.33,2.07Z"/>
  <path d="m310.56,216.34c-9.46-.84-11.88,13.04-12.06,18.05-.33,9.04.76,18.45,1.34,27.34l2.46.49c-1.36-13.13-1.17-26.3,0-32.4.87-4.53,3.41-12.95,11.22-11.48-.32-1.07-2.65-1.89-2.96-2Z"/>
  <path d="m164.22,379.24c-1.12,0-2.12-.19-3-.56-.88-.37-1.63-.91-2.26-1.6-.61-.71-1.08-1.55-1.4-2.52-.32-.99-.48-2.09-.48-3.3,0-1.41.24-2.69.72-3.82.48-1.15,1.15-2.13,2-2.94.87-.81,1.88-1.43,3.04-1.86,1.16-.44,2.42-.66,3.78-.66.99,0,1.89.11,2.72.32.83.21,1.59.57,2.28,1.08.57.41,1.04.91,1.4,1.48.37.57.65,1.3.82,2.18.19.87.28,1.97.28,3.3v8.66h-2.98v-7.76c0-.64-.03-1.31-.08-2.02-.04-.72-.15-1.41-.34-2.06-.17-.65-.45-1.2-.84-1.64-.41-.49-.9-.84-1.46-1.04-.55-.2-1.19-.3-1.94-.3-.81,0-1.61.14-2.4.42-.77.28-1.47.71-2.1,1.3-.63.57-1.13,1.32-1.5,2.24-.37.91-.56,1.99-.56,3.26,0,.85.07,1.61.2,2.26.15.65.34,1.22.58,1.7.25.47.54.85.86,1.14.33.28.69.48,1.08.6l.62-.04c.2.04.41.07.62.1.23.01.45.02.68.02.75,0,1.25-.19,1.52-.58.28-.4.42-.85.42-1.34,0-.43-.11-.81-.34-1.16-.23-.35-.59-.52-1.1-.52-.4,0-.75.13-1.04.4s-.44.69-.44,1.26c0,.51.09.98.26,1.42.17.43.39.76.64,1h-2.44c-.17-.24-.37-.58-.6-1.02-.23-.44-.34-.95-.34-1.54,0-.69.15-1.31.44-1.84.29-.53.75-.95,1.36-1.26.61-.32,1.39-.48,2.32-.48s1.7.17,2.3.5c.6.33,1.05.78,1.34,1.34.29.56.44,1.17.44,1.84,0,.89-.21,1.64-.62,2.24-.41.6-1,1.05-1.76,1.36-.75.29-1.65.44-2.7.44Zm17.01,0c-.92,0-1.73-.19-2.42-.56-.68-.37-1.21-.93-1.6-1.68-.39-.76-.58-1.7-.58-2.82,0-1.44.31-2.65.94-3.64.63-.99,1.48-1.73,2.56-2.24,1.08-.52,2.29-.78,3.64-.78,1.23,0,2.27.16,3.12.48.85.31,1.55.73,2.08,1.28.53.53.92,1.15,1.16,1.86.24.69.36,1.42.36,2.18,0,.65-.07,1.28-.2,1.88-.13.59-.31,1.14-.52,1.66h4.22v-9.1h2.98v11.24h-10.26l-.1-1.62c.25-.45.47-.99.64-1.62.17-.63.26-1.33.26-2.1,0-.84-.15-1.55-.46-2.14-.29-.59-.73-1.03-1.32-1.34-.59-.32-1.31-.48-2.18-.48s-1.68.21-2.32.64-1.13,1-1.46,1.72c-.33.71-.5,1.49-.5,2.36,0,.67.07,1.21.22,1.62.15.4.35.69.62.88.28.17.61.26,1,.26.31,0,.56-.06.76-.18.21-.12.37-.29.48-.52.12-.23.18-.5.18-.82,0-.51-.14-.89-.42-1.16-.27-.28-.64-.42-1.12-.42-.56,0-1.06.17-1.5.5-.44.32-.84.67-1.2,1.06l-.44-1.92c.49-.47,1.05-.86,1.68-1.18.63-.32,1.36-.48,2.2-.48,1.07,0,1.93.3,2.6.9.67.6,1,1.45,1,2.56,0,.77-.16,1.44-.48,2-.31.55-.77.97-1.38,1.28-.6.29-1.35.44-2.24.44Zm22.83,0c-.92,0-1.73-.19-2.42-.56-.68-.37-1.21-.93-1.6-1.68-.39-.76-.58-1.71-.58-2.84,0-1.07.18-2.01.54-2.84.37-.83.87-1.52,1.5-2.08.64-.57,1.37-1,2.2-1.28.83-.29,1.71-.44,2.64-.44.71,0,1.34.07,1.9.2s1.09.33,1.6.6c.52.27,1.05.6,1.6,1l-1.2,2.36c-.45-.56-1.01-1.03-1.66-1.4-.64-.39-1.42-.58-2.34-.58-.81,0-1.53.19-2.16.58-.61.39-1.1.93-1.46,1.64-.35.71-.52,1.54-.52,2.5,0,.67.07,1.21.22,1.62.15.4.35.69.62.88.28.19.61.28,1,.28.29,0,.55-.06.76-.18.21-.12.37-.29.48-.52.12-.23.18-.51.18-.84,0-.51-.14-.89-.42-1.16-.28-.28-.65-.42-1.12-.42-.56,0-1.06.17-1.5.5-.44.32-.84.67-1.2,1.06l-.44-1.92c.49-.47,1.05-.86,1.68-1.18.63-.32,1.36-.48,2.2-.48,1.07,0,1.93.3,2.6.9.67.6,1,1.45,1,2.56,0,.77-.15,1.44-.46,2-.31.55-.77.97-1.38,1.28-.6.29-1.35.44-2.26.44Zm5.86-.24v-9.06l.4-.52.02-1.66h11.38v2.14h-2.86v9.1h-2.98v-9.1h-2.98v9.1h-2.98Zm10.5-17.02c1.05,0,1.95.15,2.7.46.76.29,1.37.67,1.82,1.14.31.32.59.72.84,1.2.25.47.45,1.09.6,1.86.16.76.24,1.75.24,2.98v9.38h-2.98v-8.6c0-1.03-.03-1.89-.1-2.58-.07-.71-.19-1.29-.36-1.76-.17-.48-.42-.88-.74-1.2-.25-.25-.54-.45-.86-.58-.32-.13-.69-.2-1.1-.2-.57,0-1.03.11-1.36.32-.35.21-.59.49-.74.82-.15.32-.22.66-.22,1.02s.06.77.18,1.2c.11.41.27.83.5,1.26h-2.96c-.17-.32-.31-.7-.4-1.14-.11-.44-.16-.87-.16-1.28,0-.76.15-1.41.44-1.94.29-.55.69-.99,1.18-1.34.49-.35,1.05-.6,1.66-.76.6-.17,1.21-.26,1.82-.26Zm17.43,17.26c-1.28,0-2.45-.19-3.52-.56-1.05-.37-1.97-.93-2.76-1.66-.77-.73-1.37-1.63-1.8-2.7-.41-1.08-.62-2.32-.62-3.72s.22-2.59.66-3.66c.45-1.07,1.09-1.97,1.9-2.7.83-.75,1.8-1.31,2.92-1.68,1.13-.39,2.37-.58,3.72-.58,1.08,0,1.99.15,2.74.46.76.31,1.33.75,1.72,1.34.4.57.6,1.28.6,2.12,0,.69-.16,1.32-.48,1.88-.31.55-.76.98-1.36,1.3-.6.32-1.35.48-2.24.48s-1.57-.15-2.16-.46c-.57-.31-1.01-.73-1.32-1.26s-.46-1.13-.46-1.8.09-1.14.28-1.5c.19-.37.41-.7.66-.98l2.46.02c-.25.21-.47.53-.64.94-.17.4-.26.85-.26,1.34,0,.59.13,1.01.4,1.26.28.25.61.38.98.38.47,0,.81-.15,1.02-.46.21-.31.32-.68.32-1.12,0-.32-.07-.62-.2-.9-.13-.29-.36-.53-.68-.7-.31-.19-.75-.28-1.32-.28-.08,0-.23.01-.46.04-.23.01-.48.05-.76.1-.65.07-1.29.25-1.92.54-.61.29-1.17.71-1.66,1.26-.49.53-.89,1.19-1.18,1.98-.29.77-.44,1.68-.44,2.72s.14,1.95.42,2.72c.29.77.68,1.42,1.16,1.94.49.52,1.05.93,1.66,1.22.61.28,1.25.45,1.9.52.17.03.34.05.5.08.17.01.37.02.6.02.49,0,.89-.08,1.2-.24.32-.17.55-.41.7-.7.16-.31.24-.65.24-1.04,0-.44-.11-.82-.32-1.14s-.56-.48-1.04-.48c-.37,0-.69.13-.96.4s-.4.69-.4,1.26c0,.51.09.98.26,1.42.17.43.39.76.64,1h-2.48c-.29-.35-.52-.69-.68-1.04-.16-.35-.24-.85-.24-1.52s.15-1.25.44-1.78c.29-.55.73-.98,1.3-1.3.59-.33,1.32-.5,2.2-.5s1.68.17,2.28.52c.6.33,1.05.78,1.34,1.34.31.55.46,1.15.46,1.8,0,.88-.21,1.63-.64,2.24-.41.6-1.02,1.05-1.82,1.36-.79.31-1.74.46-2.86.46Zm13.42-.24v-11.24h2.98v9.1h5.8v-9.1h2.98v11.24h-11.76Zm-2.26.24c-.59,0-1.09-.08-1.5-.24-.4-.15-.75-.37-1.04-.68-.17-.2-.34-.43-.5-.7-.15-.27-.27-.61-.36-1.04-.09-.43-.14-.97-.14-1.62v-7.2h2.98v7c0,.51.03.91.08,1.22.05.31.17.55.34.74.11.12.25.21.42.28.19.07.39.1.6.1.37,0,.71-.11,1-.32.29-.23.55-.53.78-.9l-.04,2.26c-.32.32-.7.59-1.14.8-.43.2-.92.3-1.48.3Zm28.5-11.72c1.19,0,2.19.27,3,.82.83.53,1.45,1.3,1.86,2.3.43,1,.64,2.19.64,3.58,0,1.57-.17,2.92-.5,4.04-.33,1.11-.79,2.13-1.38,3.08l.12.3c-.97,1.33-2.27,2.29-3.88,2.88-1.61.6-3.5.9-5.66.9h-.34c-1.16,0-2.2-.11-3.12-.34-.92-.23-1.65-.59-2.18-1.08-.53-.48-.8-1.1-.8-1.86,0-.33.06-.63.18-.88.13-.24.32-.44.56-.6.23-.15.49-.25.8-.32.32-.07.86-.1,1.62-.1h18.1v2.14h-6.82l-1.24-.2h-9.82c-.23,0-.4.02-.52.06-.11.04-.16.13-.16.28,0,.27.27.49.82.66.56.17,1.39.26,2.48.26h.28c1.73,0,3.15-.16,4.24-.48,1.11-.32,2.03-.92,2.76-1.8l-.02-.68c.33-.49.61-1.07.82-1.72.23-.67.39-1.38.5-2.14.12-.76.18-1.55.18-2.36,0-1.11-.12-1.99-.36-2.66-.24-.68-.57-1.17-.98-1.48-.4-.31-.86-.46-1.38-.46-.33,0-.63.05-.9.16-.25.09-.48.26-.68.5-.23.29-.38.63-.46,1.02-.07.37-.1.87-.1,1.48v6.18h-2.98v-6.06c0-.73-.03-1.31-.08-1.72-.04-.41-.15-.75-.32-1-.12-.17-.27-.31-.44-.4-.17-.11-.39-.16-.66-.16s-.48.05-.68.14c-.2.09-.35.23-.46.42-.17.25-.29.59-.34,1-.04.41-.06.98-.06,1.7v6.08h-2.98v-6.62c0-.65.05-1.22.14-1.7.09-.49.23-.91.42-1.26.19-.35.41-.65.68-.9.36-.35.78-.6,1.26-.76s.99-.24,1.52-.24c.71,0,1.3.09,1.78.28.48.17.9.45,1.26.84.37.39.73.9,1.06,1.54l-1.08-.24c.35-.48.71-.9,1.08-1.26.39-.37.83-.66,1.34-.86.51-.2,1.13-.3,1.88-.3Zm8.16,14.86v-14.62h2.98v14.62h-2.98Z"/>
</svg>